<svg width="694" height="569" viewBox="0 0 694 569" fill="none" xmlns="http://www.w3.org/2000/svg">
<path fill-rule="evenodd" clip-rule="evenodd" d="M413.988 214.528C414.218 212.335 417.131 191.998 422.727 153.519C424.127 143.888 432.245 136.655 441.973 136.371C442.626 136.352 442.952 136.343 442.952 136.343C454.42 137.548 463.106 147.254 463.034 158.786L462.67 217.654" fill="white"/>
<path d="M442.765 136.763L441.818 136.791C432.318 137.068 424.39 144.131 423.023 153.536C417.431 191.989 414.516 212.344 414.286 214.527C414.259 214.785 414.028 214.972 413.77 214.945C413.512 214.918 413.325 214.687 413.352 214.429C413.584 212.225 416.494 191.907 422.093 153.401C423.526 143.544 431.834 136.142 441.791 135.852L442.769 135.823L442.832 135.825C454.541 137.056 463.408 146.966 463.335 158.739L462.971 217.607C462.969 217.866 462.757 218.075 462.498 218.074C462.239 218.072 462.03 217.861 462.031 217.601L462.396 158.733C462.466 147.453 453.978 137.957 442.765 136.763Z" fill="#9B1EA6"/>
<path fill-rule="evenodd" clip-rule="evenodd" d="M407.341 208.17L409.182 168.712C409.359 164.913 412.582 161.977 416.381 162.155C416.674 162.168 416.966 162.201 417.256 162.252C421.854 163.062 425.409 166.738 426.066 171.361L431.919 212.53L407.341 208.17Z" fill="white"/>
<path d="M406.911 208.279C406.679 208.238 406.513 208.031 406.524 207.795L408.364 168.337C408.554 164.279 411.997 161.143 416.054 161.332C416.368 161.347 416.68 161.382 416.989 161.436C421.787 162.282 425.497 166.118 426.183 170.942L432.035 212.111C432.08 212.427 431.803 212.695 431.488 212.639L406.911 208.279ZM407.482 207.426L431.014 211.601L425.253 171.074C424.625 166.653 421.224 163.137 416.826 162.361C416.556 162.314 416.284 162.283 416.011 162.271C412.471 162.106 409.468 164.841 409.303 168.381L407.482 207.426Z" fill="#9B1EA6"/>
<path fill-rule="evenodd" clip-rule="evenodd" d="M512.977 324.433L468.584 300.775C463.552 298.093 460.471 292.796 460.628 287.096L462.555 217.296L407.975 207.672L402.392 295.807C401.409 311.332 407.186 326.523 418.237 337.471L465.263 384.061L512.977 324.433Z" fill="#EEBDF2"/>
<path fill-rule="evenodd" clip-rule="evenodd" d="M402.744 287.827C412.589 295.71 419.307 303.889 422.9 312.365C426.492 320.842 428.695 332.994 429.507 348.823C426.877 346.09 424.634 343.787 422.777 341.913C415.172 334.242 409.479 327.48 406.558 320.294C402.566 310.476 401.295 299.653 402.744 287.827Z" fill="#CD6BD6"/>
<path d="M462.726 294.328C462.724 294.322 462.721 294.315 462.717 294.308C462.708 294.29 462.698 294.272 462.687 294.255C461.539 292.08 460.937 289.609 461.008 287.054L462.933 217.319C462.939 217.086 462.774 216.884 462.545 216.843L407.965 207.219C407.689 207.171 407.432 207.373 407.415 207.652L404.99 245.929C404.902 246.007 404.843 246.116 404.832 246.242C404.821 246.375 404.866 246.499 404.948 246.592L401.835 295.733C400.841 311.425 406.694 326.778 417.882 337.825L464.679 384.033C464.829 384.181 465.06 384.211 465.243 384.106C473.655 379.282 481.125 372.601 487.653 364.065C494.165 355.55 502.181 341.996 511.708 323.396C511.826 323.167 511.737 322.886 511.508 322.766L468.796 300.348C466.165 298.967 464.076 296.849 462.726 294.328ZM496.993 316.208L510.66 323.381C501.25 341.723 493.33 355.096 486.907 363.494C480.533 371.829 473.259 378.367 465.084 383.113L453.158 371.337L496.993 316.208ZM496.146 315.764L452.486 370.673L418.542 337.157C407.547 326.3 401.796 311.213 402.772 295.793L405.876 246.802L461.019 251.494C461.029 251.495 461.04 251.496 461.05 251.496L460.069 287.028C459.998 289.594 460.564 292.08 461.655 294.297L425.272 311.76C425.038 311.872 424.94 312.153 425.052 312.387C425.164 312.621 425.445 312.719 425.678 312.607L462.095 295.128C463.535 297.655 465.683 299.775 468.359 301.18L496.146 315.764ZM461.076 250.556L405.935 245.864L408.319 208.236L461.983 217.698L461.076 250.556Z" fill="#9B1EA6"/>
<path fill-rule="evenodd" clip-rule="evenodd" d="M596.091 348.945C596.091 348.945 609.159 358.986 635.293 379.068L619.081 399.393L586.395 367.875C592.859 355.255 596.091 348.945 596.091 348.945Z" fill="#CD6BD6"/>
<path fill-rule="evenodd" clip-rule="evenodd" d="M291.933 400.555L313.708 329.358L309.463 326.384L295.347 294.644L292.118 293.12C290.943 292.611 290.018 292.448 289.343 292.631C288.668 292.814 287.701 293.492 286.441 294.663L271.216 381.005C271.607 382.757 272.025 383.997 272.469 384.723C272.912 385.449 273.729 386.229 274.918 387.062L291.933 400.555ZM362.957 479.212L308.174 447.296L303.985 454.824L264.008 457.949L261.977 460.453C261.965 462.553 262.123 464.064 262.449 464.987C262.776 465.91 263.537 466.998 264.735 468.252L341.284 501.145C342.907 501.601 344.28 501.631 345.402 501.235C346.524 500.838 347.751 499.889 349.083 498.386L362.957 479.212Z" fill="white"/>
<path d="M596.594 348.637L635.796 378.76C636.004 378.92 636.041 379.22 635.877 379.425L619.665 399.75C619.492 399.967 619.171 399.988 618.972 399.796L586.285 368.278C586.136 368.134 586.099 367.91 586.193 367.726L595.89 348.795C596.024 348.534 596.362 348.458 596.594 348.637ZM587.188 367.844L619.252 398.761L634.844 379.213L596.469 349.726L587.188 367.844Z" fill="#9B1EA6"/>
<path fill-rule="evenodd" clip-rule="evenodd" d="M450.319 402.093L450.152 403.044L506.811 328.751L562.175 364.585C554.622 400.895 545.235 424.252 534.012 434.655C522.789 445.059 505.951 446.011 483.5 437.513L449.888 431.586L450.319 402.093Z" fill="#EEBDF2"/>
<path d="M449.77 401.996L449.602 402.947C449.571 403.125 449.635 403.274 449.743 403.373L449.331 431.564C449.328 431.795 449.492 431.993 449.719 432.033L483.287 437.952C505.869 446.491 522.875 445.523 534.244 434.984C545.559 424.496 554.976 401.065 562.548 364.665C562.587 364.475 562.505 364.281 562.342 364.175L506.979 328.341C506.773 328.208 506.499 328.256 506.35 328.451L450.498 401.685C450.245 401.523 449.838 401.611 449.77 401.996ZM449.753 402.791L449.754 402.661L449.848 402.538C449.792 402.611 449.759 402.699 449.753 402.791ZM506.833 329.366L561.562 364.789C554.04 400.83 544.704 424.008 533.605 434.296C522.535 444.558 505.88 445.5 483.579 437.058L483.494 437.035L450.276 431.178L450.689 402.984L506.833 329.366Z" fill="#9B1EA6"/>
<path fill-rule="evenodd" clip-rule="evenodd" d="M464.955 384.007L460.838 389.322C468.996 398.467 475.575 405.033 480.575 409.018C485.576 413.003 491.151 416.847 497.301 420.551L502.143 414.728C496.587 411.071 491.338 407.178 486.397 403.049C481.456 398.92 474.308 392.573 464.955 384.007Z" fill="#CD6BD6"/>
<path fill-rule="evenodd" clip-rule="evenodd" d="M424.632 506.302L292.441 401.281L313.345 329.612L445.716 426.399" fill="#CD6BD6"/>
<path d="M465.335 383.361C474.888 392.58 482.366 399.404 487.765 403.829C493.154 408.245 498.33 411.795 503.291 414.478C503.52 414.602 503.605 414.887 503.481 415.115C503.358 415.343 503.073 415.428 502.845 415.305C497.827 412.591 492.603 409.008 487.17 404.555C481.747 400.111 474.253 393.272 464.683 384.036C464.496 383.856 464.491 383.559 464.671 383.372C464.851 383.186 465.149 383.18 465.335 383.361Z" fill="#9B1EA6"/>
<path d="M460.961 388.964C469.681 398.371 477.442 405.768 484.241 411.152C491.011 416.513 495.735 419.555 498.348 420.261C498.599 420.329 498.747 420.587 498.679 420.837C498.612 421.088 498.354 421.236 498.103 421.168C495.323 420.417 490.529 417.33 483.658 411.889C476.817 406.471 469.022 399.042 460.272 389.602C460.096 389.412 460.107 389.115 460.298 388.939C460.488 388.762 460.785 388.774 460.961 388.964Z" fill="#9B1EA6"/>
<path d="M292.856 400.922C292.879 400.886 292.897 400.846 292.91 400.803L313.643 330.083L445.659 426.817C445.868 426.97 446.162 426.925 446.316 426.716C446.469 426.507 446.424 426.213 446.214 426.059L310.316 326.48L296.227 295.055C295.731 293.949 294.712 293.167 293.515 292.973C293.091 292.905 292.672 292.913 292.273 292.989C292.255 292.942 292.222 292.883 292.172 292.812C292.003 292.57 291.786 292.398 291.52 292.295C291.252 292.19 290.975 292.112 290.691 292.062C288.297 291.636 286.011 293.231 285.586 295.625L270.851 378.431C270.218 381.992 271.375 385.81 274.631 387.272L274.621 387.335C274.594 387.503 274.659 387.672 274.792 387.778L424.561 506.709C424.764 506.871 425.059 506.837 425.22 506.634C425.382 506.43 425.348 506.135 425.145 505.974L292.856 400.922ZM292.077 400.304L275.592 387.213L290.313 296.104C290.548 294.653 291.914 293.667 293.365 293.901C294.25 294.044 295.003 294.622 295.369 295.44L309.51 326.978C309.543 327.052 309.595 327.117 309.661 327.165L312.918 329.552C312.839 329.61 312.779 329.694 312.749 329.795L292.077 400.304ZM291.226 293.362C290.278 293.876 289.571 294.808 289.385 295.954L274.787 386.306C272.101 384.945 271.233 381.646 271.776 378.596L286.51 295.79C286.845 293.907 288.644 292.652 290.527 292.987C290.75 293.026 290.968 293.088 291.179 293.17C291.194 293.243 291.21 293.307 291.226 293.362Z" fill="#9B1EA6"/>
<path fill-rule="evenodd" clip-rule="evenodd" d="M557.174 436.219L547.949 460.982L501.859 516.826C489.732 531.519 468.746 535.263 452.286 525.668L440.767 518.954C429.685 512.494 420.854 502.787 415.468 491.146L391.698 439.767L362.957 479.212L308.174 447.296L366.538 357.148C372.933 347.271 384.619 342.18 396.207 344.223C408.452 346.382 419.342 353.304 426.494 363.474L472.016 428.198" fill="#EEBDF2"/>
<path fill-rule="evenodd" clip-rule="evenodd" d="M428.367 366.109C417.158 371.976 405.919 375.611 394.649 377.015C383.379 378.419 371.685 375.616 359.568 368.604C364.147 359.536 368.512 353.417 372.661 350.246C377.604 346.468 386.047 343.817 390.69 343.568C396.782 343.241 407.313 346.719 415.214 352.344C419.016 355.05 423.4 359.638 428.367 366.109Z" fill="#CD6BD6"/>
<path d="M262.3 459.484L262.141 459.414L262.129 459.441C260.466 463.256 262.21 467.696 266.024 469.359L339.782 501.512C343.111 502.963 346.987 501.996 349.246 499.181C349.396 499.184 349.543 499.114 349.635 498.986L391.613 440.672L415.046 491.321C420.472 503.05 429.37 512.829 440.535 519.337L452.053 526.052C468.712 535.762 489.952 531.973 502.226 517.102L548.315 461.259C548.348 461.218 548.375 461.173 548.393 461.124L557.618 436.361C557.709 436.118 557.585 435.847 557.342 435.757C557.099 435.666 556.829 435.79 556.738 436.033L547.54 460.722L501.501 516.504C489.521 531.02 468.787 534.719 452.526 525.24L441.008 518.526C430.009 512.115 421.244 502.481 415.899 490.926L392.128 439.547C391.977 439.221 391.531 439.178 391.321 439.47L363.06 478.729L308.895 447.172L358.18 370.946L358.18 370.946C376.984 384.601 400.825 383.845 429.638 368.732L471.636 428.446C471.785 428.658 472.078 428.709 472.29 428.56C472.503 428.411 472.554 428.118 472.404 427.906L426.882 363.181C419.658 352.91 408.659 345.919 396.293 343.738C384.52 341.662 372.649 346.838 366.158 356.877L307.971 446.872C307.889 446.912 307.817 446.975 307.768 447.059C307.727 447.13 307.706 447.208 307.704 447.284L303.38 453.972L265.54 456.731C264.188 456.829 263.006 457.679 262.481 458.93C262.405 459.112 262.345 459.298 262.3 459.484ZM262.48 461.712C262.832 462.553 263.502 463.262 264.41 463.643L348.317 498.828C346.299 501.131 343.002 501.891 340.158 500.651L266.4 468.498C263.68 467.312 262.163 464.513 262.48 461.712ZM362.509 479.495L349.091 498.134L264.773 462.777C263.417 462.208 262.779 460.648 263.348 459.293C263.735 458.369 264.609 457.741 265.609 457.668L303.682 454.892C303.829 454.881 303.962 454.802 304.042 454.679L308.385 447.962L362.509 479.495ZM358.691 370.156L366.947 357.387C373.232 347.666 384.729 342.653 396.13 344.663C408.252 346.801 419.033 353.653 426.114 363.721L429.093 367.957C400.599 382.874 377.154 383.589 358.691 370.156L358.691 370.156Z" fill="#9B1EA6"/>
<path fill-rule="evenodd" clip-rule="evenodd" d="M544.902 329.108L647.252 423.103C670.533 444.484 674.231 479.862 655.876 505.595L644.547 521.476C624.462 549.633 585.354 556.177 557.198 536.092C555.694 535.019 554.238 533.881 552.835 532.68L505.567 492.209C496.764 484.672 490.225 474.84 486.678 463.808L486.251 462.48C482.575 451.047 484.601 438.545 491.701 428.858L509.288 404.86C525.987 422.585 534.629 434.283 535.213 439.954C535.734 445.011 549.662 457.696 576.997 478.009C582.925 482.414 591.244 481.527 596.109 475.969C600.017 471.505 599.566 464.718 595.102 460.81C594.592 460.364 594.041 459.966 593.456 459.624L540.98 428.889" fill="#EEBDF2"/>
<path fill-rule="evenodd" clip-rule="evenodd" d="M657.965 502.933C655.662 506.978 646.584 519.312 643.258 523.232C639.758 527.355 636.13 531.195 631.669 534.86C627.251 538.489 621.575 541.846 613.459 544.367C610.744 545.211 607.835 546.076 604.735 546.962C609.513 531.094 613.665 520.168 617.191 514.184C620.05 509.333 622.944 504.475 626.531 500.887C635.539 491.877 649 483.538 666.915 475.87C667.09 483.124 664.107 492.145 657.965 502.933Z" fill="#CD6BD6"/>
<path fill-rule="evenodd" clip-rule="evenodd" d="M534.088 433.715L532.057 441.624C522.16 454.361 516.103 462.036 513.885 464.649C511.552 467.398 506.662 474.326 499.214 485.433C494.16 479.214 490.374 473.035 487.857 466.897C485.34 460.759 484.16 454.827 484.318 449.103C484.8 441.558 488.324 433.594 494.889 425.213C498.164 421.033 503.12 413.958 509.76 403.989C521.926 413.461 530.246 420.969 534.721 426.514C539.197 432.058 538.985 434.459 534.088 433.715Z" fill="white"/>
<path d="M492.35 428.892C485.34 438.457 483.339 450.803 486.969 462.093L487.396 463.42C490.917 474.37 497.407 484.128 506.144 491.608L553.581 532.224C554.922 533.372 556.312 534.463 557.746 535.493C585.627 555.518 624.462 549.149 644.487 521.269L655.372 506.114C673.57 480.776 670.167 445.874 647.417 424.529L546.431 329.777C546.241 329.6 546.232 329.302 546.409 329.113C546.587 328.924 546.884 328.915 547.073 329.092L648.06 423.844C671.154 445.512 674.608 480.941 656.135 506.662L645.25 521.817C624.923 550.119 585.5 556.584 557.198 536.256C555.742 535.21 554.332 534.103 552.97 532.937L505.533 492.322C496.664 484.729 490.076 474.823 486.502 463.708L486.075 462.38C482.353 450.804 484.405 438.145 491.593 428.337L509.18 404.339C509.33 404.135 509.614 404.086 509.823 404.228C523.947 413.808 532.45 420.613 535.375 424.699C536.713 426.566 537.257 428.725 537.196 431.215C537.158 432.768 536.944 434.077 536.439 436.398C535.995 438.436 535.89 439.067 535.951 439.663C536.451 444.511 550.395 457.211 577.548 477.388C583.28 481.648 591.323 480.789 596.027 475.416C599.706 471.213 599.282 464.823 595.079 461.144C594.561 460.691 593.999 460.292 593.4 459.953L538.59 428.917C538.364 428.789 538.285 428.503 538.412 428.277C538.54 428.051 538.827 427.972 539.052 428.1L593.863 459.136C594.517 459.506 595.132 459.942 595.698 460.437C600.291 464.458 600.755 471.442 596.733 476.035C591.707 481.776 583.113 482.694 576.988 478.142C549.47 457.694 535.559 445.024 535.017 439.759C534.94 439.016 535.047 438.372 535.521 436.198C536.014 433.933 536.221 432.668 536.257 431.192C536.313 428.892 535.819 426.932 534.611 425.245C531.8 421.32 523.473 414.64 509.67 405.259L492.35 428.892Z" fill="#9B1EA6"/>
<path fill-rule="evenodd" clip-rule="evenodd" d="M506.734 328.674C521.73 306.636 531.01 291.875 534.574 284.39C546.124 260.131 554.97 238.754 581.318 243.4C607.666 248.046 625.26 273.172 620.614 299.521C619.29 307.026 608.571 329.95 588.457 368.292C569.369 364.847 554.084 361.171 542.6 357.264C531.116 353.356 519.161 343.826 506.734 328.674Z" fill="#EEBDF2" stroke="#9B1EA6" stroke-width="1.5" stroke-linecap="round" stroke-linejoin="round"/>
<path fill-rule="evenodd" clip-rule="evenodd" d="M506.835 328.616C521.831 306.577 531.11 291.816 534.674 284.332C546.225 260.073 555.07 238.696 581.418 243.342C607.767 247.988 625.36 273.114 620.714 299.463C619.391 306.968 608.672 329.892 588.557 368.234C569.47 364.789 554.184 361.113 542.7 357.206C531.216 353.298 519.261 343.768 506.835 328.616Z" fill="#EEBDF2"/>
<path fill-rule="evenodd" clip-rule="evenodd" d="M506.835 328.616C521.831 306.577 531.11 291.816 534.674 284.332C546.225 260.073 555.07 238.696 581.418 243.342C607.767 247.988 625.36 273.114 620.714 299.463C619.391 306.968 608.672 329.892 588.557 368.234C569.47 364.789 554.184 361.113 542.7 357.206C531.216 353.298 519.261 343.768 506.835 328.616Z" stroke="#9B1EA6" stroke-width="1.5" stroke-linecap="round" stroke-linejoin="round"/>
<path d="M506.446 328.351C521.428 306.334 530.7 291.585 534.25 284.13C534.715 283.154 536.779 278.796 537.333 277.634C544.125 263.388 548.345 256.247 554.102 250.636C561.372 243.551 570.081 240.866 581.5 242.879C608.104 247.57 625.868 272.94 621.177 299.545C619.841 307.122 609.121 330.047 588.973 368.452C588.878 368.634 588.676 368.732 588.474 368.696C569.365 365.247 554.058 361.566 542.549 357.65C530.97 353.711 518.949 344.128 506.471 328.913C506.339 328.752 506.329 328.524 506.446 328.351ZM542.851 356.761C554.242 360.637 569.393 364.287 588.301 367.71C608.28 329.615 618.944 306.795 620.251 299.381C624.852 273.288 607.43 248.405 581.337 243.804C570.216 241.843 561.811 244.435 554.758 251.309C549.107 256.816 544.925 263.892 538.181 278.038C537.628 279.199 535.563 283.557 535.098 284.534C531.536 292.015 522.314 306.691 507.421 328.589C519.716 343.522 531.531 352.909 542.851 356.761Z" fill="#9B1EA6"/>
<path d="M591.45 316.941C591.45 316.941 563.906 322.514 527.19 301.856C526.56 301.502 525.896 300.949 525.199 300.198C527.937 296.506 529.66 293.948 530.368 292.525C533.25 286.73 534.101 282.876 536.823 279.355C538.582 277.08 539.798 272.882 541.81 269.106C542.895 267.069 544.83 263.913 547.613 259.637C550.253 256.1 552.042 253.766 552.981 252.635C554.418 250.903 554.75 249.024 556.145 249.484C563.682 251.974 571.139 258.463 578.517 268.95C595.661 293.319 591.45 316.941 591.45 316.941Z" fill="#9B1EA6"/>
<path fill-rule="evenodd" clip-rule="evenodd" d="M581.915 274.27C580.191 271.423 579.269 269.667 577.706 267.487C576.142 265.307 574.096 262.717 570.322 258.872C567.01 264.435 563.607 270.512 559.17 278.844C552.515 291.343 558.982 294.639 568.821 287.223C575.38 282.279 579.503 278.131 581.915 274.27ZM557.591 269.191C556.034 269.028 554.019 275.553 553.347 276.616C552.973 277.209 553.149 277.992 553.742 278.367C554.283 278.709 554.994 278.595 555.4 278.1C557.766 275.219 558.999 273.457 559.099 272.813C559.352 271.186 559.148 269.355 557.591 269.191Z" fill="white"/>
<path d="M538.643 427.205C517.866 423.542 503.992 403.729 507.656 382.952C511.32 362.174 531.133 348.301 551.91 351.965C572.687 355.628 586.56 375.441 582.897 396.219C579.233 416.996 559.42 430.869 538.643 427.205Z" fill="#9B1EA6"/>
<path d="M591.576 313.705C597.372 299.847 595.015 285.284 584.469 269.968C573.921 254.649 565.958 246.724 560.737 246.212C560.479 246.186 560.791 246.326 560.816 246.068C560.841 245.81 560.92 245.789 561.179 245.814C561.328 245.829 561.129 245.311 561.282 245.337C566.875 246.261 574.813 254.288 585.243 269.436C595.96 285 598.371 299.894 592.442 314.068C592.342 314.307 592.067 314.42 591.828 314.32C591.588 314.22 591.475 313.944 591.576 313.705Z" fill="#9B1EA6"/>
<path fill-rule="evenodd" clip-rule="evenodd" d="M564.472 423.175L556.852 385.244L523.828 369.02C522.587 368.41 521.086 368.922 520.475 370.164C520.108 370.911 520.137 371.792 520.551 372.515L536.172 399.744L533.18 426.242L564.472 423.175Z" fill="white"/>
<path fill-rule="evenodd" clip-rule="evenodd" d="M556.925 385.28C560.748 391.286 563.158 395.216 564.157 397.071C569.401 406.807 568.583 409.993 565.019 411.507C558.145 414.429 550.339 421.342 547.327 413.18C545.319 407.739 548.518 398.439 556.925 385.28Z" fill="#EEBDF2"/>
<path d="M557.248 384.992C557.064 384.702 556.641 384.702 556.456 384.991C547.973 398.268 544.736 407.679 546.813 413.307C547.997 416.516 550.005 417.773 552.803 417.397C554.824 417.125 556.447 416.391 560.829 414.044C561.878 413.482 562.491 413.16 563.147 412.831C563.87 412.468 564.518 412.163 565.129 411.904C569.45 410.067 569.44 405.988 564.497 396.812C563.491 394.944 561.077 391.008 557.248 384.992ZM547.694 412.981C545.786 407.811 548.816 398.83 556.852 386.12C560.439 391.765 562.713 395.481 563.67 397.257C568.386 406.013 568.395 409.495 564.762 411.039C564.13 411.307 563.465 411.62 562.725 411.991C562.06 412.325 561.441 412.65 560.385 413.216C556.123 415.499 554.538 416.216 552.678 416.466C550.322 416.782 548.729 415.785 547.694 412.981ZM535.307 398.365C535.199 398.13 534.919 398.027 534.684 398.136C534.448 398.245 534.346 398.524 534.454 398.759C535.791 401.655 537.207 403.265 538.772 403.541C539.028 403.586 539.271 403.415 539.316 403.16C539.361 402.904 539.191 402.661 538.935 402.616C537.759 402.408 536.527 401.007 535.307 398.365Z" fill="#9B1EA6"/>
<path d="M592.115 322.808C589.561 322.357 587.855 319.921 588.306 317.367C588.756 314.812 591.192 313.106 593.747 313.557C596.301 314.007 598.007 316.443 597.557 318.998C597.106 321.553 594.67 323.258 592.115 322.808Z" fill="white"/>
<path d="M592.255 323.309C589.445 322.814 587.569 320.134 588.064 317.324C588.56 314.514 591.239 312.638 594.049 313.133C596.859 313.629 598.736 316.308 598.24 319.119C597.745 321.929 595.065 323.805 592.255 323.309ZM592.418 322.384C594.717 322.79 596.91 321.254 597.315 318.955C597.72 316.656 596.185 314.464 593.886 314.058C591.587 313.653 589.395 315.188 588.989 317.487C588.584 319.786 590.119 321.979 592.418 322.384Z" fill="#9B1EA6"/>
<path d="M592.69 320.842C591.085 320.559 589.965 319.167 590.223 317.705C590.481 316.242 592.009 315.317 593.614 315.6C595.219 315.883 596.339 317.276 596.082 318.738C595.824 320.2 594.295 321.125 592.69 320.842ZM592.853 319.917C593.973 320.115 594.994 319.497 595.157 318.575C595.319 317.653 594.571 316.723 593.451 316.525C592.332 316.328 591.31 316.946 591.148 317.868C590.985 318.79 591.733 319.72 592.853 319.917Z" fill="#9B1EA6"/>
<path fill-rule="evenodd" clip-rule="evenodd" d="M533.56 424.083L532.278 441.663L555.77 461.702L574.615 476.154L587.183 464.38C578.762 462.387 574.167 460.199 573.397 457.816C571.12 450.763 568.156 439.324 564.505 423.499L533.56 424.083Z" fill="white"/>
<path d="M533.606 423.306C533.363 423.31 533.164 423.499 533.146 423.741L531.864 441.32C531.853 441.469 531.914 441.615 532.028 441.712L555.539 461.767L574.384 476.218C574.566 476.358 574.823 476.345 574.99 476.188L587.559 464.414C587.832 464.158 587.71 463.701 587.346 463.614C579.095 461.662 574.595 459.519 573.898 457.363C571.626 450.326 568.665 438.898 565.017 423.085C564.967 422.868 564.772 422.717 564.55 422.721L533.606 423.306ZM564.187 423.667C567.802 439.312 570.74 450.638 573.005 457.652C573.819 460.174 578.229 462.345 586.281 464.324L574.639 475.23L556.13 461.037L532.818 441.151L534.052 424.237L564.187 423.667ZM532.637 440.997L532.801 441.388L532.818 441.151L532.637 440.997Z" fill="#9B1EA6"/>
<path fill-rule="evenodd" clip-rule="evenodd" d="M668.351 317.809C671.417 318.35 674.34 316.303 674.88 313.237C675.421 310.172 673.374 307.249 670.309 306.708C667.243 306.168 664.32 308.214 663.779 311.28C663.239 314.345 665.286 317.269 668.351 317.809ZM611.632 322.116L609.199 327.41C609.527 327.59 609.85 327.779 610.167 327.977C619.222 333.643 621.969 345.577 616.303 354.632L612.124 361.31L617.131 365.373L622.3 355.262C627.875 344.356 624.509 331.007 614.43 324.047L611.632 322.116Z" fill="white"/>
<path d="M651.958 335.973C651.961 335.876 651.994 335.782 652.052 335.704L666.18 316.892C666.335 316.685 666.63 316.643 666.837 316.799C667.045 316.955 667.087 317.249 666.931 317.456L652.893 336.149L652.663 344.542C652.657 344.757 652.506 344.94 652.297 344.988L643.216 347.036L624.861 370.289C624.7 370.492 624.405 370.527 624.201 370.366C623.998 370.206 623.963 369.91 624.124 369.707L642.581 346.323C642.648 346.239 642.742 346.18 642.847 346.156L651.734 344.152L651.958 335.973Z" fill="#9B1EA6"/>
<path d="M668.491 318.311C671.812 318.896 674.978 316.679 675.564 313.358C676.15 310.037 673.932 306.87 670.611 306.284C667.29 305.699 664.123 307.916 663.538 311.237C662.952 314.558 665.17 317.725 668.491 318.311ZM668.654 317.386C665.844 316.89 663.967 314.21 664.463 311.4C664.958 308.59 667.638 306.714 670.448 307.21C673.258 307.705 675.134 310.385 674.639 313.195C674.143 316.005 671.464 317.881 668.654 317.386ZM612.12 321.768C611.88 321.603 611.549 321.694 611.427 321.959L608.994 327.253C608.891 327.477 608.978 327.742 609.195 327.861C609.515 328.036 609.83 328.221 610.139 328.414C618.974 333.943 621.655 345.587 616.126 354.422L611.947 361.1C611.821 361.301 611.865 361.565 612.049 361.714L617.056 365.776C617.288 365.965 617.634 365.891 617.77 365.626L622.939 355.515C628.621 344.399 625.191 330.793 614.918 323.7L612.12 321.768ZM614.384 324.473C624.269 331.298 627.57 344.391 622.102 355.087L617.198 364.682L612.964 361.246L616.922 354.92C622.726 345.645 619.912 333.422 610.638 327.618C610.436 327.492 610.233 327.37 610.028 327.252L612.047 322.859L614.384 324.473Z" fill="#9B1EA6"/>
<path d="M624.823 497.299C614.804 506.886 606.556 523.575 600.056 547.365L600.962 547.613C607.516 523.624 615.839 506.942 625.907 497.567C634.138 489.904 642.585 483.886 650.995 479.317C657.168 475.963 662.797 473.663 667.626 472.219L667.357 471.319C662.467 472.781 656.779 475.106 650.547 478.491C642.153 483.052 633.726 489.041 625.515 496.649L597.417 474.349C597.214 474.188 596.918 474.222 596.757 474.425C596.596 474.629 596.63 474.924 596.833 475.085L624.823 497.299ZM582.237 480.773C582.399 480.57 582.366 480.275 582.163 480.113C581.96 479.951 581.665 479.984 581.503 480.186L545.106 525.727C544.944 525.93 544.977 526.225 545.18 526.387C545.383 526.549 545.678 526.516 545.84 526.314L582.237 480.773ZM596.081 461.287C595.928 461.497 595.973 461.79 596.183 461.943C596.392 462.096 596.686 462.051 596.839 461.841L633.881 411.142C634.034 410.932 633.988 410.638 633.779 410.485C633.569 410.332 633.276 410.378 633.123 410.588L596.081 461.287Z" fill="#9B1EA6"/>
<path d="M588.186 368.536L569.637 393.88" stroke="#9B1EA6" stroke-width="1.5" stroke-linecap="round" stroke-linejoin="round"/>
<path d="M532.151 441.481L499.252 485.219" stroke="#9B1EA6" stroke-width="1.5" stroke-linecap="round" stroke-linejoin="round"/>
<path d="M185.213 153.626C184.979 153.513 184.698 153.611 184.586 153.845C184.473 154.079 184.571 154.36 184.805 154.472L222.105 172.449C231.218 176.842 235.046 187.79 230.653 196.903C229.63 199.027 228.205 200.934 226.459 202.518L219.395 208.926C212.546 215.138 212.03 225.725 218.242 232.574C221.032 235.649 224.864 237.578 228.996 237.987L249.053 239.969C259.236 240.976 268.328 246.777 273.532 255.588L281.154 268.495C281.286 268.718 281.574 268.792 281.797 268.66C282.021 268.528 282.095 268.24 281.963 268.017L274.341 255.11C268.985 246.042 259.626 240.07 249.146 239.034L229.088 237.052C225.188 236.666 221.571 234.846 218.938 231.943C213.074 225.479 213.561 215.485 220.026 209.621L227.09 203.214C228.926 201.548 230.423 199.544 231.5 197.311C236.117 187.73 232.094 176.221 222.513 171.603L185.213 153.626ZM229.613 299.587L231.027 291.569C231.087 291.228 230.86 290.904 230.519 290.844C230.179 290.784 229.854 291.011 229.794 291.352L228.38 299.369L220.363 297.955C220.022 297.895 219.697 298.123 219.637 298.463C219.577 298.804 219.804 299.129 220.145 299.189L228.163 300.602L226.749 308.62C226.689 308.961 226.916 309.285 227.257 309.345C227.597 309.405 227.922 309.178 227.982 308.837L229.396 300.82L237.413 302.234C237.754 302.294 238.079 302.066 238.139 301.726C238.199 301.385 237.971 301.06 237.631 301L229.613 299.587ZM553.04 153.127L554.453 145.11C554.513 144.769 554.286 144.444 553.945 144.384C553.605 144.324 553.28 144.552 553.22 144.892L551.806 152.91L543.789 151.496C543.448 151.436 543.123 151.663 543.063 152.004C543.003 152.345 543.231 152.669 543.571 152.729L551.589 154.143L550.175 162.161C550.115 162.501 550.342 162.826 550.683 162.886C551.024 162.946 551.348 162.719 551.408 162.378L552.822 154.361L560.84 155.774C561.18 155.834 561.505 155.607 561.565 155.266C561.625 154.926 561.398 154.601 561.057 154.541L553.04 153.127ZM285.241 142.789L286.654 134.772C286.714 134.431 286.487 134.106 286.146 134.046C285.806 133.986 285.481 134.214 285.421 134.554L284.007 142.572L275.99 141.158C275.649 141.098 275.324 141.325 275.264 141.666C275.204 142.007 275.432 142.331 275.772 142.391L283.79 143.805L282.376 151.823C282.316 152.163 282.543 152.488 282.884 152.548C283.225 152.608 283.549 152.381 283.609 152.04L285.023 144.023L293.041 145.436C293.381 145.496 293.706 145.269 293.766 144.928C293.826 144.588 293.599 144.263 293.258 144.203L285.241 142.789ZM706.342 383.647L707.43 377.479C707.49 377.139 707.262 376.814 706.922 376.754C706.581 376.694 706.256 376.921 706.196 377.262L705.109 383.429L698.942 382.342C698.601 382.282 698.276 382.509 698.216 382.85C698.156 383.19 698.384 383.515 698.724 383.575L704.891 384.663L703.804 390.83C703.744 391.171 703.971 391.495 704.312 391.555C704.653 391.615 704.977 391.388 705.037 391.047L706.125 384.88L712.292 385.968C712.633 386.028 712.958 385.8 713.018 385.46C713.078 385.119 712.85 384.794 712.51 384.734L706.342 383.647ZM343.749 227.506L344.782 221.647C344.842 221.307 344.615 220.982 344.274 220.922C343.934 220.862 343.609 221.089 343.549 221.43L342.516 227.289L336.657 226.256C336.316 226.196 335.991 226.423 335.931 226.764C335.871 227.104 336.099 227.429 336.439 227.489L342.298 228.522L341.265 234.381C341.205 234.722 341.433 235.046 341.773 235.107C342.114 235.167 342.439 234.939 342.499 234.599L343.532 228.74L349.391 229.773C349.731 229.833 350.056 229.605 350.116 229.265C350.176 228.924 349.949 228.599 349.608 228.539L343.749 227.506ZM503.606 236.934L504.639 231.075C504.699 230.735 504.471 230.41 504.131 230.35C503.79 230.29 503.465 230.517 503.405 230.858L502.372 236.717L496.513 235.684C496.173 235.623 495.848 235.851 495.788 236.192C495.728 236.532 495.955 236.857 496.296 236.917L502.155 237.95L501.122 243.809C501.061 244.15 501.289 244.474 501.63 244.534C501.97 244.595 502.295 244.367 502.355 244.026L503.388 238.168L509.247 239.201C509.588 239.261 509.912 239.033 509.972 238.693C510.033 238.352 509.805 238.027 509.464 237.967L503.606 236.934Z" fill="#9B1EA6"/>
<path fill-rule="evenodd" clip-rule="evenodd" d="M540.545 382.062C543.919 380.443 546.465 380.339 548.182 381.748C550.758 383.863 553.866 387.732 551.114 391.399C548.361 395.065 546.159 397.998 544.117 397.637C542.074 397.277 538.327 397.032 537.065 392.243C536.224 389.05 537.384 385.656 540.545 382.062Z" fill="#EEBDF2"/>
<path fill-rule="evenodd" clip-rule="evenodd" d="M540.386 383.944C540.212 386.165 540.691 387.7 541.823 388.55C542.813 389.293 544.457 389.914 546.755 390.413C547.769 390.633 548.77 389.99 548.99 388.976C549.065 388.628 549.041 388.267 548.919 387.933C548.034 385.51 547.144 383.962 546.248 383.289C545.309 382.584 543.983 382.224 542.273 382.211C541.287 382.204 540.463 382.96 540.386 383.944Z" fill="white"/>
<path d="M541.024 384.809C541.249 385.352 541.806 385.794 542.515 385.919C543.537 386.099 544.487 385.555 544.637 384.703C544.784 383.872 544.114 383.055 543.132 382.849C544.428 382.937 545.438 383.26 546.169 383.809C546.972 384.412 547.825 385.894 548.68 388.238C548.772 388.488 548.79 388.759 548.734 389.02C548.569 389.78 547.818 390.263 547.058 390.098C544.82 389.612 543.233 389.013 542.308 388.318C541.438 387.665 541 386.508 541.024 384.809ZM542.268 382.838C542.106 382.86 541.951 382.911 541.811 382.984C541.953 382.918 542.107 382.869 542.268 382.838ZM540.12 384.051C539.935 386.417 540.463 388.108 541.744 389.07C542.799 389.861 544.5 390.504 546.858 391.016C548.126 391.291 549.376 390.487 549.652 389.219C549.746 388.785 549.715 388.333 549.563 387.916C548.649 385.413 547.721 383.799 546.733 383.058C545.703 382.284 544.282 381.899 542.479 381.886C541.247 381.876 540.216 382.822 540.12 384.051Z" fill="#9B1EA6"/>
<path fill-rule="evenodd" clip-rule="evenodd" d="M522.986 368.651C524.492 368.544 525.971 369.061 527.421 370.2L527.421 370.2C527.693 370.414 527.741 370.807 527.527 371.079C527.482 371.137 527.427 371.186 527.365 371.224C526.657 371.664 525.862 371.845 524.98 371.766C523.812 371.661 522.475 371.426 520.971 371.059C520.597 369.575 521.269 368.772 522.986 368.651Z" fill="#EEBDF2"/>
<path d="M522.656 368.062C524.286 367.947 525.877 368.503 527.415 369.711C527.891 370.085 527.973 370.774 527.599 371.25C527.521 371.35 527.425 371.436 527.316 371.503C526.52 371.998 525.623 372.202 524.641 372.114C523.448 372.007 522.089 371.768 520.563 371.396C520.394 371.354 520.262 371.223 520.219 371.054C519.769 369.27 520.662 368.203 522.656 368.062ZM524.725 371.178C525.507 371.248 526.2 371.091 526.82 370.706C526.836 370.696 526.849 370.684 526.861 370.669C526.914 370.601 526.902 370.503 526.834 370.449C525.471 369.379 524.105 368.902 522.722 368.999C521.397 369.093 520.91 369.556 521.073 370.552C522.438 370.874 523.656 371.083 524.725 371.178Z" fill="#9B1EA6"/>
<path fill-rule="evenodd" clip-rule="evenodd" d="M171.146 122.671L177.042 125.301L158.597 137.946L157.834 131.452" fill="white"/>
<path d="M352.309 478.289C349.755 477.838 348.049 475.402 348.499 472.847C348.95 470.293 351.386 468.587 353.941 469.038C356.495 469.488 358.201 471.924 357.75 474.479C357.3 477.033 354.864 478.739 352.309 478.289Z" fill="white"/>
<path d="M352.449 478.79C349.639 478.295 347.763 475.615 348.258 472.805C348.753 469.995 351.433 468.119 354.243 468.614C357.053 469.11 358.929 471.789 358.434 474.599C357.938 477.409 355.259 479.286 352.449 478.79ZM352.612 477.865C354.911 478.27 357.103 476.735 357.509 474.436C357.914 472.137 356.379 469.945 354.08 469.539C351.781 469.134 349.588 470.669 349.183 472.968C348.778 475.267 350.313 477.46 352.612 477.865Z" fill="#9B1EA6"/>
<path d="M295.56 392.61C293.005 392.16 291.3 389.723 291.75 387.169C292.201 384.614 294.637 382.909 297.191 383.359C299.746 383.809 301.451 386.246 301.001 388.8C300.551 391.355 298.115 393.06 295.56 392.61Z" fill="white"/>
<path d="M295.478 393.073C292.668 392.577 290.792 389.897 291.288 387.087C291.783 384.277 294.463 382.401 297.273 382.897C300.083 383.392 301.959 386.072 301.464 388.882C300.968 391.692 298.288 393.568 295.478 393.073ZM295.642 392.147C297.941 392.553 300.133 391.018 300.539 388.719C300.944 386.419 299.409 384.227 297.11 383.822C294.811 383.416 292.618 384.951 292.213 387.25C291.807 389.55 293.342 391.742 295.642 392.147Z" fill="#9B1EA6"/>
<path d="M352.884 476.323C351.279 476.04 350.159 474.648 350.417 473.186C350.674 471.723 352.203 470.798 353.808 471.081C355.413 471.364 356.533 472.756 356.275 474.219C356.018 475.681 354.489 476.606 352.884 476.323ZM353.047 475.398C354.167 475.595 355.188 474.977 355.35 474.055C355.513 473.134 354.765 472.203 353.645 472.006C352.525 471.809 351.504 472.427 351.342 473.349C351.179 474.271 351.927 475.201 353.047 475.398Z" fill="#9B1EA6"/>
<path d="M295.913 390.606C294.308 390.323 293.188 388.93 293.446 387.468C293.704 386.006 295.233 385.08 296.838 385.363C298.443 385.646 299.563 387.039 299.305 388.501C299.047 389.963 297.519 390.889 295.913 390.606ZM296.077 389.68C297.196 389.878 298.217 389.26 298.38 388.338C298.543 387.416 297.794 386.486 296.675 386.288C295.555 386.091 294.534 386.709 294.371 387.631C294.209 388.553 294.957 389.483 296.077 389.68Z" fill="#9B1EA6"/>
<path d="M588.778 317.802C583.154 321.371 572.227 321.476 555.947 318.179C539.7 314.888 528.549 310.361 522.484 304.568C522.297 304.389 522.29 304.091 522.469 303.904C522.648 303.716 522.946 303.709 523.133 303.889C529.042 309.533 540.045 314 556.134 317.258C572.19 320.51 582.92 320.407 588.275 317.009C588.494 316.87 588.784 316.935 588.923 317.154C589.062 317.373 588.997 317.663 588.778 317.802Z" fill="#9B1EA6"/>
<path fill-rule="evenodd" clip-rule="evenodd" d="M92.5931 15.4059C106.981 23.3766 120.945 35.4779 134.485 51.7095C148.452 68.4524 162.799 90.5864 177.525 118.112L152.55 134.958C132.45 110.704 117.302 89.1107 107.106 70.1771C97.218 51.8145 91.1474 34.3926 88.8942 17.9115C88.7662 16.976 89.181 16.0491 89.9638 15.521C90.7489 14.9915 91.7647 14.947 92.5931 15.4059Z" fill="#EEBDF2"/>
<path fill-rule="evenodd" clip-rule="evenodd" d="M114.759 31.3335L95.7517 43.5615C89.7393 25.968 87.8032 16.512 89.9434 15.1936C92.0836 13.8753 100.355 19.2552 114.759 31.3335Z" fill="#CD6BD6"/>
<path fill-rule="evenodd" clip-rule="evenodd" d="M161.603 136.183L169.246 149.68L169.897 140.574L177.28 143.784L175.393 136.456L184.335 138.033L174.69 127.211L178.054 124.905L171.392 121.934L171.009 122.792L176.138 125.079L159.027 136.81L158.355 131.089L157.422 131.199L158.275 138.464L161.603 136.183Z" fill="#9B1EA6"/>
<path d="M134.892 51.2028C148.881 67.9727 163.245 90.1327 177.985 117.684C178.099 117.897 178.034 118.16 177.834 118.295L152.859 135.141C152.658 135.276 152.388 135.237 152.234 135.051C132.116 110.776 116.951 89.1578 106.739 70.1939C96.8251 51.7842 90.7359 34.3096 88.4746 17.7693C88.3225 16.6564 88.8159 15.5538 89.747 14.9258C90.6785 14.2975 91.8837 14.2447 92.8666 14.7892C107.309 22.79 121.317 34.929 134.892 51.2028ZM176.957 117.754C162.314 90.4279 148.051 68.4444 134.171 51.8045C120.666 35.6149 106.745 23.5515 92.4114 15.6109C91.7374 15.2375 90.9111 15.2737 90.2723 15.7045C89.6379 16.1325 89.3017 16.8837 89.4054 17.642C91.6505 34.0638 97.7028 51.4329 107.566 69.7485C117.699 88.5665 132.739 110.026 152.686 134.124L176.957 117.754Z" fill="#9B1EA6"/>
<path fill-rule="evenodd" clip-rule="evenodd" d="M151.56 79.7919L153.447 85.1747L177.244 117.87L198.476 122.929L200.606 121.493L151.56 79.7919ZM126.26 96.7008L147.615 157.433L149.72 155.96L152.605 134.325L130.609 100.392L126.26 96.7008Z" fill="white"/>
<path d="M152.126 79.7068C151.761 79.3964 151.22 79.7678 151.379 80.22L153.266 85.6029L153.33 85.7239L177.126 118.419C177.192 118.509 177.288 118.573 177.397 118.599L198.629 123.659C198.757 123.69 198.891 123.665 199 123.592L201.13 122.155C201.388 121.981 201.409 121.609 201.172 121.408L152.126 79.7068ZM200.092 121.722L198.646 122.698L177.783 117.726L154.13 85.2269L152.839 81.546L200.092 121.722ZM154.089 85.1711L154.153 85.2921L154.13 85.2269L154.089 85.1711ZM126.827 96.6155C126.461 96.3054 125.921 96.6773 126.079 97.1294L147.434 157.862C147.537 158.155 147.892 158.269 148.147 158.091L150.251 156.617C150.359 156.542 150.43 156.425 150.447 156.295L153.333 134.66C153.347 134.549 153.322 134.436 153.261 134.342L131.266 100.409L131.175 100.307L126.827 96.6155ZM130.515 100.978L152.379 134.707L149.544 155.966L148.115 156.966L127.541 98.4541L130.515 100.978Z" fill="#9B1EA6"/>
<path d="M117.703 68.7347C112.594 67.8339 109.182 62.9618 110.083 57.8527C110.984 52.7436 115.856 49.3321 120.965 50.233C126.074 51.1338 129.486 56.0059 128.585 61.115C127.684 66.2242 122.812 69.6356 117.703 68.7347Z" fill="white"/>
<path d="M117.535 68.9595C112.17 68.0135 108.588 62.8979 109.534 57.5333C110.48 52.1687 115.596 48.5867 120.96 49.5326C126.325 50.4785 129.907 55.5942 128.961 60.9588C128.015 66.3233 122.9 69.9054 117.535 68.9595ZM117.698 68.0344C122.552 68.8902 127.18 65.6493 128.036 60.7956C128.892 55.942 125.651 51.3135 120.797 50.4577C115.944 49.6019 111.315 52.8427 110.459 57.6964C109.604 62.5501 112.844 67.1785 117.698 68.0344Z" fill="#9B1EA6"/>
<path d="M118.491 64.2634C121.131 64.7289 123.648 62.9663 124.114 60.3266C124.579 57.6869 122.816 55.1696 120.177 54.7042C117.537 54.2387 115.02 56.0013 114.554 58.641C114.089 61.2807 115.851 63.798 118.491 64.2634ZM118.654 63.3383C116.525 62.963 115.104 60.9329 115.479 58.8041C115.855 56.6753 117.885 55.2539 120.014 55.6293C122.142 56.0046 123.564 58.0347 123.188 60.1635C122.813 62.2923 120.783 63.7137 118.654 63.3383ZM115.07 31.4186L114.557 30.6315L95.3535 43.1429L95.8663 43.93L115.07 31.4186Z" fill="#9B1EA6"/>
<path d="M403.603 284.395C414.939 294.671 422.374 303.867 425.906 311.996C429.435 320.119 431.603 333.161 432.425 351.141L431.487 351.184C430.67 333.309 428.518 320.365 425.044 312.371C421.574 304.384 414.218 295.286 402.972 285.091L403.603 284.395Z" fill="#9B1EA6"/>
<path fill-rule="evenodd" clip-rule="evenodd" d="M563.822 420.548C558.539 421.439 553.703 421.972 549.313 422.145C545.018 422.315 540.021 422.235 534.322 421.905C533.113 421.835 532.076 422.758 532.006 423.967C532 424.06 532.001 424.153 532.008 424.246L532.025 424.499C532.115 425.78 533.158 426.786 534.441 426.828C539.763 427.005 544.757 427.041 549.423 426.934C554.156 426.826 559.049 426.061 564.103 424.639C565.204 424.329 565.936 423.288 565.856 422.147C565.788 421.185 564.952 420.46 563.99 420.528C563.934 420.531 563.878 420.538 563.822 420.548Z" fill="white"/>
<path d="M544.531 423.092C546.16 423.092 547.708 423.063 549.176 423.005C550.965 422.934 552.845 422.767 554.817 422.504L554.974 425.509C553.009 425.737 551.093 425.873 549.227 425.915C547.745 425.949 546.23 425.969 544.682 425.974L544.531 423.092ZM543.59 423.089L543.741 425.975C540.718 425.974 537.571 425.919 534.298 425.81C533.496 425.783 532.844 425.155 532.788 424.354L532.771 424.101C532.767 424.048 532.767 423.995 532.77 423.942C532.81 423.251 533.402 422.723 534.093 422.763C537.508 422.961 540.673 423.069 543.59 423.089ZM555.75 422.373C558.296 422 560.989 421.471 563.831 420.786C563.894 420.771 563.957 420.761 564.021 420.757C564.659 420.712 565.211 421.193 565.256 421.83L565.284 422.237C565.338 423 564.831 423.69 564.087 423.868C561.273 424.542 558.547 425.05 555.908 425.394L555.75 422.373ZM563.611 419.873C558.243 421.166 553.419 421.897 549.139 422.066C544.844 422.236 539.847 422.156 534.148 421.825C532.939 421.755 531.902 422.678 531.832 423.887C531.826 423.98 531.827 424.074 531.834 424.167L531.851 424.42C531.941 425.7 532.984 426.706 534.267 426.749C539.589 426.926 544.583 426.961 549.249 426.854C553.965 426.747 558.984 426.056 564.306 424.782C565.496 424.497 566.307 423.393 566.221 422.171L566.193 421.764C566.112 420.61 565.111 419.739 563.956 419.82C563.84 419.828 563.725 419.846 563.611 419.873Z" fill="#9B1EA6"/>
<path fill-rule="evenodd" clip-rule="evenodd" d="M627.566 379.613L623.575 377.001L617.681 385.183L621.509 388.719L627.566 379.613ZM612.475 380.449C613.627 380.652 614.818 380.666 615.722 380.068C616.689 379.427 617.336 378.126 617.553 376.893C617.727 375.907 617.601 374.472 617.172 373.647C616.565 372.478 615.395 372.062 613.997 371.815C612.753 371.596 611.687 371.493 610.751 372.196C609.893 372.841 609.12 374.231 608.919 375.371C608.668 376.794 608.885 378.369 609.808 379.343C610.432 380.001 611.514 380.28 612.475 380.449Z" fill="#EEBDF2"/>
<path d="M627.911 379.425L623.148 376.308L616.749 385.191L621.287 389.384L627.911 379.425ZM621.115 387.946L617.997 385.066L623.386 377.586L626.605 379.692L621.115 387.946ZM612.085 380.857C613.561 381.118 614.745 381.02 615.673 380.405C616.701 379.724 617.452 378.368 617.707 376.921C617.907 375.787 617.742 374.264 617.28 373.376C616.657 372.176 615.575 371.616 613.771 371.298C612.052 370.995 611.106 371.056 610.16 371.767C609.22 372.473 608.374 373.957 608.148 375.235C607.851 376.922 608.181 378.581 609.159 379.612C609.785 380.271 610.719 380.617 612.085 380.857ZM612.248 379.932C611.068 379.724 610.287 379.435 609.841 378.966C609.094 378.179 608.823 376.817 609.073 375.398C609.259 374.345 609.984 373.074 610.724 372.518C611.402 372.009 612.125 371.962 613.607 372.223C615.153 372.496 615.989 372.929 616.447 373.809C616.806 374.5 616.948 375.815 616.782 376.757C616.568 377.971 615.944 379.099 615.154 379.622C614.469 380.075 613.51 380.155 612.248 379.932Z" fill="#9B1EA6"/>
<path d="M408.701 207.164L462.356 216.625C463.378 216.805 464.06 217.779 463.88 218.801C463.699 219.823 462.725 220.505 461.703 220.325L408.048 210.864C407.026 210.684 406.344 209.71 406.524 208.688C406.704 207.666 407.679 206.984 408.701 207.164Z" fill="white"/>
<path d="M462.356 216.625L408.701 207.164C407.679 206.984 406.704 207.666 406.524 208.688C406.344 209.71 407.026 210.684 408.048 210.864L461.703 220.325C462.725 220.505 463.699 219.823 463.88 218.801C464.06 217.779 463.378 216.805 462.356 216.625ZM462.193 217.55C462.703 217.64 463.045 218.127 462.955 218.638C462.864 219.149 462.377 219.49 461.866 219.4L408.211 209.939C407.7 209.849 407.359 209.362 407.449 208.851C407.539 208.34 408.027 207.999 408.537 208.089L462.193 217.55Z" fill="#9B1EA6"/>
<path d="M498.325 484.155L531.113 440.643C531.582 440.022 532.465 439.897 533.087 440.366C533.708 440.834 533.832 441.717 533.364 442.339L500.575 485.851C500.107 486.472 499.224 486.597 498.602 486.128C497.981 485.66 497.856 484.776 498.325 484.155Z" fill="white" stroke="#9B1EA6" stroke-width="1.5"/>
<path fill-rule="evenodd" clip-rule="evenodd" d="M534.897 363.787C536.392 365.586 545.741 360.715 547.634 360.281C548.651 360.047 549.287 359.033 549.053 358.015C548.839 357.083 547.961 356.457 547.01 356.559C541.324 357.167 538.075 357.762 537.262 358.344C535.199 359.818 533.403 361.988 534.897 363.787Z" fill="white"/>
<path fill-rule="evenodd" clip-rule="evenodd" d="M486.034 398.519L469.672 383.603C469.416 383.37 469.02 383.389 468.787 383.644C468.781 383.65 468.776 383.657 468.77 383.663L459.572 394.616C459.357 394.871 459.381 395.251 459.625 395.478L475.659 410.339C475.913 410.575 476.309 410.56 476.544 410.306C476.548 410.301 476.552 410.297 476.556 410.292L486.084 399.394C486.308 399.137 486.286 398.748 486.034 398.519Z" fill="white"/>
<path d="M486.868 398.858L469.648 383.354C469.391 383.123 468.995 383.143 468.764 383.4L458.707 394.57C458.476 394.827 458.496 395.223 458.753 395.454L475.973 410.958C476.23 411.19 476.626 411.169 476.857 410.912L486.914 399.743C487.145 399.486 487.125 399.09 486.868 398.858ZM486.006 399.347L476.369 410.051L459.615 394.966L469.252 384.262L486.006 399.347Z" fill="#9B1EA6"/>
<path d="M482.173 398.225L471.004 388.168C470.747 387.937 470.351 387.957 470.12 388.214L463.415 395.661C463.184 395.918 463.204 396.314 463.461 396.545L474.631 406.602C474.888 406.833 475.284 406.813 475.515 406.556L482.22 399.109C482.451 398.852 482.43 398.456 482.173 398.225ZM475.027 405.694L464.323 396.056L470.608 389.076L481.312 398.714L475.027 405.694Z" fill="#9B1EA6"/>
</svg>
