<svg id="visual" viewBox="0 0 1440 500" width="1440" height="500" xmlns="http://www.w3.org/2000/svg" xmlns:xlink="http://www.w3.org/1999/xlink" version="1.1"><rect x="0" y="0" width="1440" height="500" fill="#FAFAFA"></rect><path d="M0 360L34.3 358.7C68.7 357.3 137.3 354.7 205.8 349.2C274.3 343.7 342.7 335.3 411.2 336.3C479.7 337.3 548.3 347.7 617 344.8C685.7 342 754.3 326 823 319.2C891.7 312.3 960.3 314.7 1028.8 313.7C1097.3 312.7 1165.7 308.3 1234.2 304.5C1302.7 300.7 1371.3 297.3 1405.7 295.7L1440 294L1440 501L1405.7 501C1371.3 501 1302.7 501 1234.2 501C1165.7 501 1097.3 501 1028.8 501C960.3 501 891.7 501 823 501C754.3 501 685.7 501 617 501C548.3 501 479.7 501 411.2 501C342.7 501 274.3 501 205.8 501C137.3 501 68.7 501 34.3 501L0 501Z" fill="#eecbf2"></path><path d="M0 399L34.3 396.3C68.7 393.7 137.3 388.3 205.8 384.8C274.3 381.3 342.7 379.7 411.2 382C479.7 384.3 548.3 390.7 617 391.5C685.7 392.3 754.3 387.7 823 381.8C891.7 376 960.3 369 1028.8 366C1097.3 363 1165.7 364 1234.2 362.5C1302.7 361 1371.3 357 1405.7 355L1440 353L1440 501L1405.7 501C1371.3 501 1302.7 501 1234.2 501C1165.7 501 1097.3 501 1028.8 501C960.3 501 891.7 501 823 501C754.3 501 685.7 501 617 501C548.3 501 479.7 501 411.2 501C342.7 501 274.3 501 205.8 501C137.3 501 68.7 501 34.3 501L0 501Z" fill="#e6a6ed"></path><path d="M0 421L34.3 414.8C68.7 408.7 137.3 396.3 205.8 396.7C274.3 397 342.7 410 411.2 413.5C479.7 417 548.3 411 617 411.2C685.7 411.3 754.3 417.7 823 420.2C891.7 422.7 960.3 421.3 1028.8 419.7C1097.3 418 1165.7 416 1234.2 408C1302.7 400 1371.3 386 1405.7 379L1440 372L1440 501L1405.7 501C1371.3 501 1302.7 501 1234.2 501C1165.7 501 1097.3 501 1028.8 501C960.3 501 891.7 501 823 501C754.3 501 685.7 501 617 501C548.3 501 479.7 501 411.2 501C342.7 501 274.3 501 205.8 501C137.3 501 68.7 501 34.3 501L0 501Z" fill="#dc80e6"></path><path d="M0 425L34.3 427C68.7 429 137.3 433 205.8 435.5C274.3 438 342.7 439 411.2 436C479.7 433 548.3 426 617 423C685.7 420 754.3 421 823 417.8C891.7 414.7 960.3 407.3 1028.8 410.2C1097.3 413 1165.7 426 1234.2 431.2C1302.7 436.3 1371.3 433.7 1405.7 432.3L1440 431L1440 501L1405.7 501C1371.3 501 1302.7 501 1234.2 501C1165.7 501 1097.3 501 1028.8 501C960.3 501 891.7 501 823 501C754.3 501 685.7 501 617 501C548.3 501 479.7 501 411.2 501C342.7 501 274.3 501 205.8 501C137.3 501 68.7 501 34.3 501L0 501Z" fill="#d155de"></path><path d="M0 456L34.3 457.8C68.7 459.7 137.3 463.3 205.8 461.5C274.3 459.7 342.7 452.3 411.2 453.7C479.7 455 548.3 465 617 469.3C685.7 473.7 754.3 472.3 823 471.2C891.7 470 960.3 469 1028.8 464.8C1097.3 460.7 1165.7 453.3 1234.2 452.8C1302.7 452.3 1371.3 458.7 1405.7 461.8L1440 465L1440 501L1405.7 501C1371.3 501 1302.7 501 1234.2 501C1165.7 501 1097.3 501 1028.8 501C960.3 501 891.7 501 823 501C754.3 501 685.7 501 617 501C548.3 501 479.7 501 411.2 501C342.7 501 274.3 501 205.8 501C137.3 501 68.7 501 34.3 501L0 501Z" fill="#c505d6"></path></svg>