<svg width="600" height="558" viewBox="0 0 600 558" fill="none" xmlns="http://www.w3.org/2000/svg">
<path fill-rule="evenodd" clip-rule="evenodd" d="M284.443 292.073C269.595 293.786 258.202 293.581 250.262 291.457C242.323 289.334 236.062 284.818 231.479 277.908C226.483 267.341 223.711 261.285 223.165 259.74C220.485 252.171 220.189 244.731 220.701 239.725C221.371 233.187 224.963 224.667 231.479 214.167C232.407 206.866 233.946 200.399 236.098 194.767C238.249 189.135 242.56 181.026 249.031 170.44L249.955 135.644C252.685 127.679 255.251 122.034 257.653 118.708C260.055 115.382 262.826 113.637 265.967 113.473C268.617 113.221 271.08 113.837 273.357 115.321C275.634 116.804 279.945 120.602 286.29 126.714C291.53 117.569 297.484 110.59 304.15 105.775C310.817 100.96 319.644 97.265 330.632 94.6894L332.172 91.6101L332.357 73.4975L327.245 29.408H320.47L330.94 14.0115C331.874 10.619 332.798 8.15551 333.711 6.62114C334.625 5.08677 336.33 3.34191 338.829 1.38655C338.875 0.819578 340.929 0.511412 344.992 0.462051C349.056 0.412691 355.457 0.618135 364.196 1.07838C367.927 1.93528 370.493 3.06436 371.895 4.46562C373.296 5.86688 374.528 8.84355 375.59 13.3956L390.601 29.4297L381.132 30.0239L380.209 59.2773C378.891 64.2943 377.66 67.6815 376.513 69.439C375.367 71.1966 373.52 72.5309 370.971 73.4421L355.882 74.3659L354.035 92.2259L355.266 94.6894C362.973 96.8922 368.207 98.6371 370.971 99.9242C377.607 103.015 383.609 107.491 388.215 115.321C391.439 120.802 394.776 128.375 399.3 136.26C403.284 143.203 410.571 155.417 421.163 172.904L431.633 182.142L436.868 192.611L449.493 202.157L455.343 183.066C443.437 165 437.483 153.504 437.483 148.577C437.483 146.518 438.727 144.577 439.947 143.342C441.645 141.624 443.977 140.567 447.953 140.879C450.604 141.087 453.17 142.729 455.651 145.806L491.063 240.957C487.539 252.507 484.46 261.129 481.825 266.823C479.191 272.516 475.291 278.162 470.124 283.759C462.679 287.935 456.418 290.398 451.34 291.149C446.262 291.9 437.948 291.182 426.398 288.994C422.353 287.142 419.684 285.397 418.392 283.759C413.6 277.685 411.596 269.98 409.154 265.899C405.724 260.167 403.671 254.83 402.995 249.887L386.983 197.846L317.699 195.691L311.232 248.347C307.698 262.658 303.9 273.127 299.839 279.756C295.778 286.384 290.646 290.49 284.443 292.073Z" fill="white"/>
<path fill-rule="evenodd" clip-rule="evenodd" d="M289.214 303.417C287.96 303.191 287.036 303.079 286.441 303.082C284.157 303.091 282.293 302.974 281.202 301.233C279.684 298.811 280.095 295.935 282.435 292.604L288.906 290.447H291.988L314.484 291.371L321.572 290.447L346.533 289.522C349.204 290.755 350.128 293.117 349.307 296.61C348.485 300.103 346.225 302.26 342.527 303.082L335.131 303.417L285.208 532.329H253.159C258.645 496.367 263.062 469.322 266.41 451.192C269.758 433.062 277.359 383.804 289.214 303.417ZM367.488 303.417C367.44 302.69 365.488 302.578 361.633 303.082C358.346 301.438 357.011 298.87 357.627 295.377C358.243 291.885 359.784 290.036 362.25 289.83L366.872 290.447H381.048L395.223 291.371L410.94 289.83C415.871 290.241 418.336 292.501 418.336 296.61C418.336 298.945 417.549 300.158 416.487 301.233C415.949 301.776 414.922 302.393 413.405 303.082L408.475 303.417L421.109 532.638H387.827C383.344 491.417 380.467 462.52 379.199 445.947C377.688 426.209 369.138 328.096 367.488 303.417Z" fill="white"/>
<path fill-rule="evenodd" clip-rule="evenodd" d="M289.214 303.108H335.131L285.208 532.021H253.159C258.645 496.059 263.062 469.013 266.41 450.883C269.758 432.754 277.359 383.495 289.214 303.108ZM367.488 303.108H408.475L421.109 532.329H387.827C383.344 491.109 380.468 462.212 379.199 445.639C377.688 425.9 369.138 327.788 367.488 303.108Z" stroke="#9B1EA6" stroke-width="1.5"/>
<path fill-rule="evenodd" clip-rule="evenodd" d="M317.874 98.8766L283.129 99.0399C265.795 99.1214 251.543 112.728 250.659 130.04L250.077 141.451C250.62 135.583 251.339 131.47 252.234 129.11C253.655 125.365 255.297 123.211 257.165 120.781C259.989 117.106 263.188 114.006 265.794 113.376C271.751 111.937 278.428 116.564 285.824 127.259C287.063 124.863 288.09 123.012 288.906 121.706C290.535 119.098 292.268 116.282 295.377 113.376C301.541 107.618 309.04 102.784 317.874 98.8766Z" fill="#CD6BD6"/>
<path fill-rule="evenodd" clip-rule="evenodd" d="M289.522 289.843C292.692 290.999 298.65 291.513 307.396 291.385C312.158 291.315 320.731 289.894 328.043 289.534C332.121 289.334 338.284 289.334 346.533 289.534L353.621 270.715H360.401L362.558 289.534C369.77 289.985 374.906 290.294 377.966 290.46C384.548 290.817 390.023 291.077 394.299 291.077C401.558 291.077 406.9 290.562 410.324 289.534L394.607 201.61L321.572 204.386C320.617 217.775 317.125 232.48 311.094 248.503C309.809 251.917 309.603 256.234 308.32 260.534C306.366 267.088 304.213 273.427 301.849 277.811C299.607 281.97 295.498 285.98 289.522 289.843Z" fill="#CD6BD6"/>
<path d="M409.837 289.739L402.78 248.581C402.737 248.329 402.906 248.09 403.158 248.047C403.409 248.003 403.648 248.172 403.691 248.424L410.713 289.38H411.71C415.625 289.38 418.798 292.557 418.798 296.476C418.798 300.394 415.625 303.571 411.71 303.571H363.084C359.614 303.571 356.801 300.755 356.801 297.281C356.801 296.99 356.821 296.7 356.861 296.412L357.23 293.763C357.563 291.378 359.408 289.513 361.745 289.129L359.982 271.178H353.941L347.166 289.164C349.056 289.602 350.395 291.367 350.242 293.362C350.228 293.535 350.204 293.706 350.169 293.875L349.605 296.57C348.752 300.649 345.16 303.571 340.997 303.571H284.621C282.023 303.571 279.917 301.463 279.917 298.862C279.917 298.37 279.994 297.881 280.146 297.413C280.557 296.141 281.07 294.498 281.684 292.484C281.759 292.24 282.017 292.102 282.261 292.177C282.506 292.251 282.643 292.51 282.568 292.754C281.953 294.773 281.438 296.42 281.025 297.698C280.904 298.074 280.842 298.467 280.842 298.862C280.842 300.952 282.534 302.646 284.621 302.646H340.997C344.722 302.646 347.937 300.031 348.7 296.381L349.264 293.685C349.291 293.555 349.31 293.424 349.32 293.292C349.449 291.605 348.193 290.133 346.51 289.997C342.686 289.922 339.981 289.883 338.396 289.881C334.106 289.877 322.008 290.579 319.476 290.918C313.73 291.688 310.687 291.799 305.717 291.631C305.555 291.626 305.555 291.626 305.394 291.62C303.618 291.56 302.768 291.539 301.636 291.539C297.525 291.539 294.454 291.436 292.416 291.229C290.025 290.985 288.942 290.644 289.065 289.777L289.98 289.908C289.989 289.841 289.971 289.79 289.959 289.768C290.024 289.818 290.157 289.88 290.352 289.941C290.806 290.084 291.529 290.208 292.51 290.308C294.51 290.512 297.554 290.614 301.636 290.614C302.782 290.614 303.639 290.635 305.425 290.695C305.587 290.701 305.587 290.701 305.748 290.706C310.67 290.872 313.663 290.763 319.353 290.001C321.929 289.656 334.068 288.951 338.397 288.956C339.946 288.958 342.551 288.994 346.216 289.065L353.188 270.552C353.256 270.372 353.429 270.252 353.621 270.252H360.401H364.407C364.662 270.252 364.869 270.46 364.869 270.715C364.869 270.971 364.662 271.178 364.407 271.178H360.911L362.679 289.18C364.72 289.517 368.798 289.688 374.884 289.688C377.172 289.688 388.353 290.313 391.569 290.616C395.233 290.961 401.328 290.669 409.837 289.739ZM410.341 290.305L410.374 290.611C401.58 291.586 395.288 291.895 391.482 291.537C388.293 291.237 377.14 290.614 374.884 290.614C368.377 290.614 364.147 290.42 362.16 290.027L362.164 290.006C360.097 290.221 358.435 291.82 358.146 293.89L357.777 296.539C357.743 296.785 357.725 297.033 357.725 297.281C357.725 300.244 360.125 302.646 363.084 302.646H411.71C415.114 302.646 417.874 299.883 417.874 296.476C417.874 293.068 415.114 290.305 411.71 290.305H410.341Z" fill="#9B1EA6"/>
<path d="M356.526 74.3503L354.732 93.3113C369.34 98.2815 378.679 102.598 382.788 106.298C388.116 111.095 401.773 138.822 408.772 157.018C410.886 162.514 414.162 165.995 422.113 172.437L422.782 172.979C430.766 179.449 434.03 182.943 436.028 188.495C439.113 197.068 445.286 199.128 454.813 194.711C455.045 194.604 455.32 194.704 455.427 194.936C455.534 195.168 455.434 195.443 455.202 195.551C445.209 200.184 438.439 197.924 435.158 188.809C433.236 183.469 430.056 180.064 422.2 173.698L421.531 173.157C413.458 166.614 410.101 163.048 407.909 157.351C400.972 139.314 387.342 111.643 382.17 106.986C378.152 103.368 368.779 99.0506 354.089 94.0703C353.886 94.0015 353.757 93.802 353.777 93.5883L355.597 74.3503H350.231C349.976 74.3503 349.769 74.1431 349.769 73.8875C349.769 73.6319 349.976 73.4247 350.231 73.4247H356.099C356.103 73.4247 356.106 73.4247 356.11 73.4247H366.375C372.736 73.4247 376.426 70.8356 378.352 65.6034C379.9 61.3989 380.277 56.539 380.277 46.1502V39.0743C380.277 38.9765 380.277 38.897 380.278 38.717C380.282 35.277 380.123 33.2951 379.387 30.2731C379.37 30.2551 379.349 30.2329 379.323 30.2072C379.251 30.1351 379.151 30.0408 379.022 29.9252H334.951C334.695 29.9252 334.488 29.718 334.488 29.4625C334.488 29.2069 334.695 28.9997 334.951 28.9997H379.199C379.312 28.9997 379.421 29.0411 379.505 29.116C380.051 29.5996 380.213 29.7621 380.264 29.9689C381.04 33.1251 381.207 35.1784 381.202 38.7182C381.202 38.898 381.202 38.977 381.202 39.0743V46.1502C381.202 56.6561 380.82 61.5769 379.22 65.9235C377.16 71.5186 373.124 74.3503 366.375 74.3503H356.526ZM491.544 240.351L492.431 240.612C484.688 266.938 476.465 282.285 467.661 286.678C453.803 293.593 436.857 294.125 423.063 287.352C421.24 286.457 419.809 285.207 418.357 283.286C417.321 281.916 416.299 280.268 414.669 277.408C414.242 276.659 412.616 273.777 412.377 273.355C411.356 271.553 410.473 270.019 409.533 268.421C408.244 266.232 406.415 261.398 404.028 253.888L404.909 253.607C407.275 261.05 409.088 265.842 410.329 267.951C411.273 269.554 412.158 271.092 413.181 272.898C413.421 273.322 415.046 276.202 415.472 276.949C417.084 279.777 418.089 281.398 419.094 282.727C420.464 284.539 421.786 285.694 423.47 286.521C436.996 293.163 453.64 292.64 467.249 285.849C475.74 281.612 483.872 266.437 491.544 240.351Z" fill="#9B1EA6"/>
<path fill-rule="evenodd" clip-rule="evenodd" d="M364.715 97.6425L370.262 99.8021C374.165 111.731 377.144 121.912 379.199 130.344C381.253 138.777 382.589 151.323 383.205 167.982L375.501 165.823C376.117 152.454 374.987 140.628 372.111 130.344C370.858 125.865 368.393 114.965 364.715 97.6425ZM317.565 98.8766L322.804 96.717C324.037 105.835 324.653 113.034 324.653 118.313C324.653 123.591 324.653 128.939 324.653 134.355L316.641 145.77C317.874 142.068 318.49 133.738 318.49 120.781C318.49 107.823 318.182 100.522 317.565 98.8766Z" fill="#CD6BD6"/>
<path d="M364.571 97.7388L364.393 96.9008L370.941 99.4501L371.009 99.6581C374.916 111.598 377.898 121.789 379.956 130.235C382.019 138.704 383.358 151.277 383.975 167.965L383.998 168.599L375.33 166.169L375.347 165.801C375.961 152.48 374.836 140.702 371.974 130.469C370.718 125.977 368.251 115.072 364.571 97.7388ZM372.864 130.22C375.728 140.459 376.868 152.211 376.287 165.476L383.027 167.366C382.402 151.05 381.077 138.743 379.058 130.454C377.018 122.083 374.065 111.983 370.199 100.154L365.653 98.3845C369.231 115.21 371.635 125.826 372.864 130.22ZM317.441 99.0391L317.284 98.6194L323.49 96.0609L323.571 96.655C324.806 105.792 325.424 113.009 325.424 118.313V134.501L315.512 148.622L316.511 145.623C317.722 141.986 318.336 133.686 318.336 120.781C318.336 107.925 318.027 100.604 317.441 99.0391ZM319.26 120.781C319.26 131.479 318.842 139.032 317.996 143.473L324.499 134.209V118.313C324.499 113.173 323.911 106.192 322.734 97.3734L318.434 99.146C318.994 101.463 319.26 108.614 319.26 120.781Z" fill="#9B1EA6"/>
<path d="M355.951 99.0081L356.838 98.7451L398.759 240.394C401.155 252.914 409.789 259.146 424.807 259.146C439.833 259.146 452.185 249.106 461.88 228.937L462.713 229.338C452.879 249.798 440.239 260.072 424.807 260.072C409.369 260.072 400.335 253.552 397.862 240.613L355.951 99.0081ZM378.742 213.571L379.656 213.712C374.899 244.562 365.957 260.072 352.696 260.072C341.968 260.072 334.83 226.657 331.896 162.759C331.342 150.711 331.034 130.138 330.971 101.037L331.895 101.035C331.959 130.123 332.267 150.685 332.819 162.716C335.715 225.782 342.843 259.146 352.696 259.146C365.322 259.146 374.048 244.01 378.742 213.571Z" fill="#9B1EA6"/>
<path fill-rule="evenodd" clip-rule="evenodd" d="M424.794 198.395L457.084 195.002L458.994 213.173L426.704 216.567L424.794 198.395ZM394.844 165.819L391.81 136.947C393.027 133.825 396.235 131.991 401.434 131.444C406.632 130.898 410.151 132.025 411.991 134.826L415.026 163.698L394.844 165.819ZM479.606 156.911L459.425 159.032L456.39 130.159C457.608 127.037 460.816 125.203 466.014 124.657C471.212 124.11 474.731 125.238 476.571 128.038L479.606 156.911Z" fill="#9B1EA6"/>
<path fill-rule="evenodd" clip-rule="evenodd" d="M392.309 197.879L387.619 153.258C389.584 148.424 394.725 145.57 403.042 144.696C411.36 143.822 416.982 145.545 419.909 149.864L424.599 194.485L392.309 197.879ZM489.179 187.698L456.889 191.091L452.199 146.47C454.164 141.637 459.306 138.783 467.623 137.909C475.94 137.034 481.562 138.757 484.489 143.076L489.179 187.698Z" fill="white"/>
<path fill-rule="evenodd" clip-rule="evenodd" d="M392.106 198.004L387.416 153.382C389.381 148.549 394.522 145.695 402.839 144.821C411.157 143.947 416.779 145.669 419.706 149.989L424.396 194.61L392.106 198.004ZM488.976 187.822L456.686 191.216L451.996 146.595C453.961 141.761 459.103 138.907 467.42 138.033C475.737 137.159 481.359 138.882 484.286 143.201L488.976 187.822Z" fill="white" stroke="#9B1EA6" stroke-width="1.5" stroke-linecap="round" stroke-linejoin="round"/>
<path fill-rule="evenodd" clip-rule="evenodd" d="M391.313 247.335L385.888 195.714C388.695 190.066 395.816 186.641 407.253 185.439C418.689 184.237 426.367 186.107 430.287 191.048L435.712 242.668L391.313 247.335ZM500.292 235.88L455.894 240.547L450.468 188.926C453.275 183.278 460.397 179.854 471.833 178.652C483.269 177.45 490.947 179.319 494.867 184.26L500.292 235.88Z" fill="white"/>
<path d="M391.219 247.81C390.966 247.837 390.738 247.652 390.711 247.398L385.286 195.777C385.277 195.69 385.293 195.602 385.332 195.523C388.224 189.703 395.485 186.211 407.062 184.994C418.639 183.777 426.467 185.683 430.506 190.775C430.561 190.844 430.595 190.927 430.604 191.014L436.03 242.635C436.056 242.889 435.872 243.117 435.618 243.143L391.219 247.81ZM435.062 242.271L429.699 191.246C425.872 186.534 418.372 184.736 407.159 185.914C395.946 187.093 388.983 190.411 386.219 195.816L391.582 246.841L435.062 242.271ZM500.61 235.847C500.637 236.101 500.452 236.329 500.198 236.356L455.8 241.022C455.546 241.049 455.318 240.864 455.292 240.61L449.866 188.99C449.857 188.902 449.873 188.814 449.912 188.735C452.805 182.915 460.065 179.423 471.642 178.206C483.219 176.99 491.047 178.895 495.087 183.987C495.141 184.056 495.175 184.139 495.184 184.227L500.61 235.847ZM499.642 235.484L494.279 184.459C490.453 179.746 482.952 177.948 471.739 179.127C460.526 180.305 453.563 183.623 450.8 189.028L456.163 240.053L499.642 235.484Z" fill="#9B1EA6"/>
<path fill-rule="evenodd" clip-rule="evenodd" d="M414.166 252.588C401.906 253.876 391.611 251.531 391.171 247.35C390.732 243.168 400.314 238.734 412.575 237.445C424.835 236.156 435.13 238.501 435.57 242.683C436.009 246.865 426.427 251.299 414.166 252.588ZM478.746 245.8C466.486 247.089 456.191 244.744 455.751 240.562C455.312 236.38 464.894 231.946 477.155 230.657C489.415 229.369 499.711 231.714 500.15 235.895C500.59 240.077 491.007 244.512 478.746 245.8Z" fill="#9B1EA6"/>
<path d="M380.257 206.604C384.133 206.196 386.945 202.722 386.538 198.844C386.13 194.966 382.657 192.152 378.781 192.56C374.905 192.967 372.093 196.441 372.5 200.319C372.908 204.198 376.381 207.011 380.257 206.604ZM380.16 205.683C376.792 206.037 373.774 203.593 373.42 200.223C373.066 196.853 375.509 193.834 378.878 193.48C382.246 193.126 385.264 195.571 385.618 198.941C385.972 202.31 383.529 205.329 380.16 205.683Z" fill="#9B1EA6"/>
<path d="M232.289 214.239L238.517 211.972C238.757 211.885 239.022 212.009 239.109 212.249C239.196 212.489 239.073 212.755 238.833 212.842L233.296 214.858L238.91 218.179C239.13 218.309 239.203 218.593 239.073 218.813C238.943 219.033 238.659 219.106 238.44 218.976L232.171 215.267L232.053 215.31C231.999 215.33 231.943 215.339 231.888 215.338C220.57 230.427 217.952 245.312 224.002 260.05C229.9 274.418 232.551 279.545 237.019 283.971C242.171 289.074 249.265 291.726 261.53 293.085C284.66 295.647 298.17 287.973 304.186 270.87C307.946 260.183 310.096 252.7 310.635 248.444C310.667 248.191 310.899 248.011 311.152 248.044C311.405 248.076 311.585 248.307 311.553 248.561C311.002 252.901 308.839 260.432 305.058 271.177C298.893 288.704 284.97 296.613 261.428 294.005C248.975 292.625 241.693 289.903 236.369 284.629C231.778 280.082 229.096 274.892 223.147 260.402C216.933 245.263 219.674 229.954 231.338 214.532C232.593 198.873 238.271 184.217 248.365 170.572C258.429 156.968 268.801 146.741 279.483 139.893C286.703 120.742 297.186 107.917 310.937 101.446C317.789 98.2215 322.93 96.0783 326.372 95.014C328.678 94.3012 330.318 94.0388 331.236 94.3282L332.82 65.2241C332.834 64.9689 333.052 64.7733 333.307 64.7859C333.562 64.8011 333.757 65.0192 333.743 65.2744L332.095 95.551C332.062 96.1505 331.171 96.1262 331.171 95.5258C331.171 94.9593 329.745 94.9399 326.645 95.8983C323.254 96.947 318.146 99.076 311.331 102.283C297.784 108.659 287.437 121.343 280.294 140.363C280.259 140.457 280.194 140.537 280.11 140.591C269.485 147.373 259.15 157.549 249.108 171.122C239.193 184.525 233.589 198.894 232.289 214.239Z" fill="#9B1EA6"/>
<path fill-rule="evenodd" clip-rule="evenodd" d="M331.741 91.7809L327.412 102.744C327.162 103.378 327.472 104.094 328.105 104.344C328.355 104.442 328.629 104.457 328.888 104.385L347.379 99.2546L359.617 103.614C360.259 103.842 360.964 103.507 361.192 102.866C361.329 102.483 361.267 102.056 361.028 101.727L354.237 92.3979C352.978 93.4948 350.28 94.0433 346.143 94.0433C342.006 94.0433 337.206 93.2892 331.741 91.7809Z" fill="white"/>
<path d="M347.091 99.5918L329.32 104.522C328.964 104.621 328.587 104.601 328.244 104.465C327.373 104.121 326.947 103.135 327.291 102.263L331.619 91.3023C331.706 91.0825 331.945 90.9635 332.172 91.0263C337.599 92.5243 342.36 93.2721 346.451 93.2721C350.484 93.2721 353.092 92.7418 354.242 91.7404C354.447 91.5623 354.759 91.5977 354.919 91.817L361.707 101.143C362.037 101.596 362.121 102.183 361.934 102.711C361.62 103.594 360.651 104.055 359.769 103.741L348.018 99.555C348.039 99.7305 348.063 99.9366 348.09 100.173C348.206 101.177 348.379 102.733 348.611 104.842C349.073 109.059 349.766 115.486 350.691 124.125C350.718 124.379 350.534 124.607 350.28 124.634C350.027 124.662 349.799 124.478 349.772 124.224C348.847 115.586 348.154 109.159 347.692 104.943C347.46 102.836 347.287 101.281 347.172 100.279C347.141 100.01 347.114 99.7807 347.091 99.5918ZM347.08 94.1933C347.181 94.5901 347.278 95.0316 347.371 95.514C347.522 96.3003 347.641 97.0565 347.78 98.0543L347.839 98.4769C347.841 98.4885 347.843 98.4998 347.844 98.5107L360.079 102.869C360.48 103.012 360.92 102.802 361.063 102.401C361.148 102.161 361.11 101.894 360.96 101.688L354.449 92.7426C353.053 93.6732 350.604 94.1441 347.08 94.1933ZM346.934 98.6751C346.931 98.6536 346.927 98.6307 346.924 98.6065L346.865 98.1828C346.727 97.1993 346.611 96.4563 346.463 95.6891C346.355 95.1279 346.242 94.6271 346.125 94.1961C342.12 94.1586 337.522 93.4353 332.327 92.0281L328.151 102.604C327.994 103 328.188 103.448 328.584 103.604C328.74 103.666 328.911 103.675 329.073 103.63L346.934 98.6751Z" fill="#9B1EA6"/>
<path fill-rule="evenodd" clip-rule="evenodd" d="M283.975 197.69C309.548 156.884 324.238 134.363 328.043 130.127C331.013 126.822 336.101 126.55 339.406 129.52C341.88 131.743 342.731 135.259 341.549 138.367L332.357 162.52" fill="white"/>
<path d="M284.259 198.153C309.803 157.393 324.502 134.858 328.279 130.654C331.08 127.537 335.875 127.283 338.989 130.087C341.319 132.185 342.119 135.502 341.004 138.434L331.818 162.573L332.682 162.902L341.868 138.763C343.119 135.474 342.221 131.753 339.607 129.399C336.114 126.253 330.734 126.538 327.592 130.035C323.759 134.301 309.079 156.808 283.476 197.662L284.259 198.153Z" fill="#9B1EA6"/>
<path fill-rule="evenodd" clip-rule="evenodd" d="M341.099 47.6822C340.379 47.4698 339.617 47.3559 338.829 47.3559C334.404 47.3559 330.817 50.9471 330.817 55.3771C330.817 59.141 333.406 62.2995 336.899 63.1641L336.537 70.6276C336.44 72.618 334.784 74.1738 332.791 74.1459L323.281 74.0125C322.672 74.0039 322.066 73.9131 321.48 73.7425C317.885 72.6952 315.82 68.9319 316.867 65.3371L327.319 29.4625H328.557L328.562 29.4555L330.011 29.4625H335.439L335.441 29.4886L348.332 29.5506C346.844 36.3968 345.507 40.9718 344.322 43.2755C343.476 44.9204 342.402 46.3893 341.099 47.6822ZM384.897 29.4625C386.111 34.6042 384.233 37.1751 379.264 37.1751C374.295 37.1751 366.841 34.6042 356.903 29.4625H384.897Z" fill="#9B1EA6"/>
<path fill-rule="evenodd" clip-rule="evenodd" d="M270.839 208.46L312.683 171.175C318.775 165.748 326.677 162.796 334.835 162.901L382.481 163.514C388.99 163.598 394.31 168.731 394.626 175.232C394.925 181.385 390.179 186.616 384.026 186.915C383.886 186.922 383.746 186.926 383.606 186.928L343.267 187.369C340.799 187.396 338.82 189.419 338.847 191.887C338.847 191.888 338.848 191.89 338.848 191.892C338.878 194.39 340.875 196.419 343.373 196.487L385.011 197.629C390.685 197.784 395.212 202.413 395.242 208.088C395.272 213.681 390.761 218.239 385.168 218.269C385.15 218.269 385.133 218.269 385.115 218.269H345.425C342.983 218.269 341.004 220.248 341.004 222.689C341.004 222.707 341.004 222.725 341.005 222.742C341.037 225.427 342.749 227.802 345.285 228.683L370.7 237.506C375.097 239.033 377.425 243.835 375.898 248.233C375.83 248.429 375.755 248.621 375.673 248.811C373.639 253.522 368.337 255.893 363.469 254.269L322.153 240.481L299.8 255.4C288.337 263.051 272.841 259.96 265.19 248.496C264.471 247.418 263.837 246.286 263.293 245.109C261.346 240.895 260.739 234.858 261.471 226.997C262.137 219.855 265.484 213.231 270.839 208.46Z" fill="white"/>
<path d="M269.175 252.277L276.969 247.261C274.294 244.705 272.135 241.564 270.311 237.912C267.667 232.619 268.536 222.497 272.868 207.482L271.392 208.797C266.116 213.498 262.818 220.029 262.165 227.07C261.443 234.842 262.044 240.792 263.948 244.915C264.479 246.064 265.098 247.17 265.8 248.223C266.797 249.722 267.932 251.075 269.175 252.277ZM269.874 252.927C277.997 260.188 290.284 261.352 299.766 255.024L301.922 253.585C293.353 255.133 286.383 253.869 280.798 250.28C279.685 249.565 278.646 248.774 277.672 247.909L269.874 252.927ZM273.361 205.804C273.361 205.801 273.362 205.799 273.363 205.796C273.416 205.62 273.564 205.498 273.734 205.471L312.615 170.827C318.791 165.324 326.799 162.332 335.066 162.438L382.736 163.052C389.481 163.138 394.995 168.464 395.323 175.21C395.635 181.618 390.698 187.065 384.297 187.377C384.152 187.385 384.006 187.389 383.86 187.391L343.503 187.832C341.293 187.856 339.521 189.669 339.546 191.882L339.546 191.886C339.573 194.136 341.37 195.963 343.617 196.025L385.271 197.166C391.188 197.328 395.909 202.16 395.94 208.086C395.971 213.934 391.26 218.701 385.418 218.732L385.362 218.732H345.656C343.472 218.732 341.702 220.503 341.702 222.689C341.703 222.713 341.702 222.713 341.703 222.737C341.733 225.226 343.319 227.429 345.668 228.244L371.094 237.071C375.726 238.679 378.179 243.742 376.573 248.379C376.501 248.587 376.421 248.793 376.334 248.995C374.203 253.927 368.658 256.41 363.566 254.71L322.457 240.992L300.279 255.794C288.598 263.589 272.817 260.43 265.03 248.737C264.302 247.644 263.66 246.496 263.109 245.303C261.125 241.008 260.509 234.904 261.244 226.984C261.919 219.71 265.326 212.963 270.777 208.106L273.361 205.804ZM274.172 206.32C269.545 221.904 268.552 232.321 271.138 237.498C273.693 242.615 276.912 246.684 281.297 249.501C287.007 253.17 294.235 254.322 303.292 252.369C303.419 252.342 303.544 252.369 303.644 252.435L322.32 239.971L363.858 253.832C368.495 255.38 373.545 253.119 375.485 248.628C375.563 248.446 375.635 248.263 375.699 248.076C377.138 243.922 374.941 239.386 370.791 237.945L345.365 229.119C342.647 228.175 340.813 225.627 340.778 222.748C340.778 222.718 340.778 222.718 340.778 222.689C340.778 219.992 342.962 217.806 345.656 217.806H385.362L385.413 217.806C390.745 217.778 395.044 213.428 395.016 208.091C394.987 202.665 390.664 198.24 385.246 198.091L343.592 196.95C340.848 196.875 338.654 194.644 338.621 191.897L338.621 191.892C338.591 189.168 340.773 186.936 343.493 186.907L383.85 186.465C383.984 186.464 384.118 186.46 384.252 186.453C390.143 186.166 394.687 181.152 394.4 175.255C394.096 168.998 388.981 164.058 382.724 163.977L335.054 163.363C327.018 163.26 319.233 166.169 313.23 171.518L274.172 206.32Z" fill="#9B1EA6"/>
<path fill-rule="evenodd" clip-rule="evenodd" d="M479.401 174.286L479.407 175.541C479.436 181.939 484.631 187.11 491.029 187.11H499.799C492.553 187.667 487.828 190.032 485.624 194.205C482.152 200.778 484.666 208.921 491.239 212.392C493.176 213.415 495.334 213.95 497.525 213.95H501.34L500.298 214.461C492.965 218.06 489.938 226.921 493.536 234.254C493.753 234.696 493.992 235.127 494.252 235.545C497.756 240.425 504.552 241.541 509.432 238.037C509.758 237.803 510.071 237.551 510.369 237.283L517.172 231.153C520.928 227.769 522.696 222.699 521.858 217.713C521.797 217.349 521.737 217.021 521.679 216.726C521.325 214.928 520.092 212.254 517.981 208.705C519.419 205.826 519.83 202.329 519.214 198.216C518.597 194.103 516.851 190.503 513.975 187.418C515.376 183.827 515.581 179.816 514.591 175.386C514.199 173.632 513.656 172.137 512.963 170.901C511.69 168.635 509.398 167.126 506.813 166.855L489.611 165.049C484.533 164.516 479.984 168.2 479.451 173.278C479.416 173.613 479.399 173.949 479.401 174.286Z" fill="white"/>
<path d="M501.47 213.179L517.854 208.015C519.177 205.26 519.548 201.917 518.957 197.976C518.357 193.967 516.66 190.462 513.861 187.45L513.858 187.572L499.657 187.294C492.769 187.891 488.314 190.173 486.233 194.113C482.883 200.457 485.303 208.318 491.64 211.672C493.509 212.661 495.592 213.179 497.706 213.179H501.47ZM501.713 214.072L500.693 214.573C493.601 218.053 490.67 226.63 494.147 233.73C494.358 234.163 494.592 234.584 494.828 234.967C498.187 239.644 504.697 240.711 509.369 237.349C509.679 237.126 509.975 236.887 510.258 236.632L517.055 230.508C520.701 227.224 522.415 222.3 521.599 217.459C521.54 217.108 521.482 216.791 521.426 216.508C521.095 214.826 519.943 212.298 517.971 208.948L501.713 214.072ZM500.001 186.375L513.857 186.647C515.121 183.221 515.284 179.401 514.341 175.179C513.959 173.468 513.432 172.017 512.763 170.824C511.564 168.686 509.403 167.262 506.967 167.007L489.762 165.2C484.938 164.694 480.618 168.198 480.112 173.028C480.078 173.346 480.062 173.666 480.064 173.986L480.07 175.23C480.098 181.373 485.081 186.338 491.217 186.338H500L500.001 186.375ZM485.416 193.681C487.061 190.565 490.039 188.43 494.327 187.264H491.217C484.572 187.264 479.176 181.887 479.145 175.234L479.139 173.99C479.138 173.636 479.155 173.283 479.192 172.931C479.751 167.593 484.527 163.72 489.859 164.28L507.063 166.086C509.798 166.373 512.223 167.971 513.569 170.371C514.285 171.648 514.842 173.183 515.243 174.977C516.228 179.383 516.052 183.396 514.71 187.007C517.533 190.113 519.256 193.727 519.872 197.839C520.485 201.934 520.1 205.449 518.707 208.375C520.765 211.86 521.973 214.502 522.333 216.328C522.391 216.621 522.45 216.946 522.51 217.305C523.379 222.459 521.554 227.7 517.673 231.196L510.877 237.32C510.569 237.598 510.246 237.858 509.909 238.1C504.822 241.761 497.734 240.6 494.061 235.481C493.79 235.046 493.542 234.598 493.317 234.138C489.731 226.815 492.548 218.015 499.593 214.104H497.706C495.441 214.104 493.21 213.55 491.208 212.49C484.42 208.897 481.827 200.476 485.416 193.681ZM491.204 167.664C491.459 167.661 491.669 167.865 491.673 168.12C491.676 168.376 491.472 168.586 491.217 168.59C487.81 168.638 486.298 170.676 486.59 174.945C486.884 179.233 488.402 181.158 491.181 180.963C491.436 180.945 491.657 181.138 491.675 181.393C491.693 181.648 491.501 181.869 491.246 181.886C487.865 182.123 485.993 179.749 485.668 175.008C485.342 170.249 487.217 167.721 491.204 167.664ZM495.622 194.053C495.877 194.032 496.1 194.221 496.122 194.476C496.143 194.73 495.954 194.954 495.7 194.975C492.304 195.261 490.938 197.4 491.527 201.638C492.12 205.895 493.768 207.709 496.527 207.321C496.78 207.286 497.014 207.462 497.05 207.715C497.085 207.968 496.909 208.202 496.656 208.238C493.3 208.71 491.267 206.472 490.612 201.766C489.954 197.04 491.649 194.388 495.622 194.053ZM502.102 221.039C502.352 220.987 502.597 221.148 502.649 221.398C502.702 221.648 502.541 221.893 502.291 221.945C498.956 222.643 497.86 224.932 498.962 229.067C500.069 233.22 501.926 234.82 504.617 234.098C504.864 234.032 505.118 234.179 505.184 234.426C505.25 234.673 505.104 234.926 504.857 234.992C501.583 235.87 499.292 233.896 498.069 229.305C496.84 224.695 498.199 221.856 502.102 221.039Z" fill="#9B1EA6"/>
<path fill-rule="evenodd" clip-rule="evenodd" d="M101.677 303.845L116.641 460.121H124.345L117.008 302.34C116.815 298.2 113.303 294.999 109.162 295.192C109.036 295.198 108.909 295.207 108.783 295.219C104.441 295.642 101.261 299.502 101.677 303.845Z" fill="white"/>
<path d="M101.217 303.598L116.221 460.292H124.829L117.469 302.027C117.265 297.632 113.536 294.235 109.141 294.439C109.006 294.445 108.872 294.455 108.738 294.468C104.142 294.916 100.777 299.001 101.217 303.598ZM117.061 459.368L102.137 303.51C101.746 299.421 104.739 295.787 108.828 295.388C108.946 295.376 109.065 295.368 109.184 295.362C113.069 295.182 116.365 298.185 116.546 302.07L123.861 459.368H117.061Z" fill="#9B1EA6"/>
<path d="M112.865 464.633C112.768 464.869 112.498 464.982 112.262 464.886C112.026 464.789 111.912 464.519 112.009 464.283C118.108 449.371 121.658 438.952 122.657 433.051C122.699 432.799 122.938 432.629 123.19 432.672C123.441 432.715 123.611 432.953 123.568 433.205C122.555 439.193 118.988 449.661 112.865 464.633ZM122.318 412.458C122.399 412.7 122.269 412.962 122.027 413.044C121.785 413.125 121.523 412.994 121.442 412.752C118.728 404.658 113.244 397.753 104.976 392.03C104.766 391.885 104.714 391.597 104.859 391.387C105.004 391.177 105.292 391.125 105.502 391.27C113.927 397.102 119.538 404.166 122.318 412.458ZM115.687 445.235C115.581 445.468 115.307 445.571 115.075 445.466C114.842 445.36 114.739 445.086 114.844 444.854C115.669 443.034 116.221 441.552 116.5 440.414C120.337 424.77 117.959 413.338 111.166 405.213C111.002 405.017 111.028 404.726 111.224 404.562C111.42 404.398 111.712 404.424 111.875 404.62C118.862 412.977 121.303 424.712 117.398 440.634C117.103 441.836 116.533 443.368 115.687 445.235ZM104.79 296.205C104.758 295.952 104.937 295.72 105.19 295.688C105.443 295.656 105.675 295.835 105.707 296.088C109.713 327.489 124.745 344.095 150.869 346.044C151.124 346.063 151.314 346.285 151.296 346.54C151.277 346.794 151.055 346.985 150.8 346.966C124.207 344.982 108.848 328.016 104.79 296.205ZM111.558 295.729C111.534 295.475 111.721 295.249 111.975 295.225C112.229 295.201 112.455 295.388 112.479 295.642C115.104 323.292 127.604 337.707 150.06 339.359C150.315 339.378 150.506 339.6 150.487 339.854C150.469 340.109 150.247 340.3 149.993 340.281C127.052 338.593 114.224 323.8 111.558 295.729Z" fill="#9B1EA6"/>
<path fill-rule="evenodd" clip-rule="evenodd" d="M357.627 50.4409C356.436 50.4409 355.47 49.3359 355.47 47.9729C355.47 46.6098 356.436 45.5048 357.627 45.5048C358.818 45.5048 359.784 46.6098 359.784 47.9729C359.784 49.3359 358.818 50.4409 357.627 50.4409ZM376.733 50.4409C375.542 50.4409 374.576 49.3359 374.576 47.9729C374.576 46.6098 375.542 45.5048 376.733 45.5048C377.925 45.5048 378.891 46.6098 378.891 47.9729C378.891 49.3359 377.925 50.4409 376.733 50.4409ZM353.357 45.8039C353.192 45.9989 352.901 46.0231 352.706 45.8579C352.511 45.6928 352.487 45.4008 352.652 45.2057C352.725 45.1189 352.858 44.9742 353.042 44.7907C353.348 44.4875 353.691 44.1845 354.068 43.901C355.164 43.0749 356.311 42.574 357.468 42.574C359.142 42.574 360.058 42.9745 360.983 43.9905C361.129 44.151 361.277 44.3263 361.471 44.5662C361.528 44.6368 361.881 45.0768 361.992 45.2125C362.153 45.4107 362.123 45.7022 361.925 45.8636C361.727 46.025 361.436 45.9952 361.275 45.7971C361.162 45.6581 360.808 45.2171 360.753 45.1493C360.569 44.922 360.431 44.7588 360.299 44.6139C359.551 43.7914 358.883 43.4995 357.468 43.4995C356.546 43.4995 355.574 43.9241 354.623 44.6405C354.283 44.8969 353.971 45.1724 353.694 45.4476C353.529 45.6112 353.414 45.7365 353.357 45.8039ZM373.091 45.7909C372.933 45.9918 372.642 46.0265 372.442 45.8686C372.241 45.7106 372.206 45.4196 372.364 45.2187C372.432 45.1317 372.555 44.9868 372.727 44.803C373.011 44.4991 373.331 44.1955 373.681 43.9113C374.706 43.0794 375.781 42.574 376.872 42.574C378.443 42.574 379.307 42.9808 380.171 44.0033C380.307 44.1639 380.444 44.3394 380.625 44.5793C380.678 44.6499 381.006 45.0899 381.108 45.2256C381.262 45.4295 381.222 45.7197 381.018 45.8739C380.815 46.0281 380.525 45.9878 380.371 45.784C380.266 45.645 379.938 45.2039 379.887 45.1362C379.716 44.909 379.588 44.7459 379.465 44.6012C378.776 43.7851 378.169 43.4995 376.872 43.4995C376.032 43.4995 375.139 43.9196 374.263 44.6303C373.948 44.8859 373.659 45.1608 373.402 45.4353C373.25 45.5986 373.143 45.7237 373.091 45.7909ZM369.846 54.2973H373.485L369.415 43.8215C369.323 43.5833 369.441 43.3151 369.679 43.2225C369.917 43.1298 370.185 43.2478 370.277 43.486L374.591 54.5923C374.709 54.8957 374.486 55.2228 374.161 55.2228H369.846C369.591 55.2228 369.384 55.0156 369.384 54.76C369.384 54.5044 369.591 54.2973 369.846 54.2973ZM367.599 60.7211C367.374 60.8418 367.094 60.757 366.973 60.5317C366.853 60.3064 366.938 60.0259 367.163 59.9052C368.837 59.0072 370.45 59.0072 371.937 59.9185C372.154 60.0519 372.223 60.3368 372.09 60.5548C371.956 60.7728 371.672 60.8413 371.454 60.7078C370.256 59.9737 368.993 59.9737 367.599 60.7211Z" fill="#9B1EA6"/>
<path fill-rule="evenodd" clip-rule="evenodd" d="M27.5809 331.773L52.2342 407.975L173.96 391.624V302.465L53.7077 326.542L52.2342 337.018L44.3479 328.416L27.5809 331.773Z" fill="white"/>
<path d="M44.6887 327.822C44.5794 327.702 44.4157 327.649 44.2572 327.681L27.4902 331.038C27.2192 331.092 27.0561 331.37 27.1412 331.633L51.7945 407.835C51.8633 408.047 52.0743 408.18 52.2958 408.151L174.022 391.8C174.251 391.769 174.422 391.573 174.422 391.341V302.183C174.422 301.891 174.155 301.672 173.869 301.73L53.617 325.807C53.4245 325.845 53.2773 326.001 53.25 326.196L51.913 335.701L44.6887 327.822ZM44.1833 328.638L51.8936 337.048C52.1576 337.336 52.6376 337.187 52.692 336.8L54.1198 326.649L173.498 302.747V390.937L52.5553 407.183L28.1805 331.842L44.1833 328.638Z" fill="#9B1EA6"/>
<path fill-rule="evenodd" clip-rule="evenodd" d="M0.46228 543.891H41.4484C57.5924 501.828 72.4148 475.566 85.9154 465.105C86.7129 464.487 81.9573 457.636 71.6487 444.552C78.3307 449.842 82.9532 453.235 85.5162 454.733C86.7231 455.438 86.8259 445.36 85.8244 424.499L96.8594 457.94C101.06 455.828 104.265 454.347 106.472 453.499C137.494 441.57 162.969 471.701 182.897 543.891H599.538" fill="white"/>
<path d="M85.283 454.985C85.7227 455.242 86.1193 455.003 86.3357 454.54C86.4762 454.24 86.5844 453.784 86.6721 453.157C86.8392 451.961 86.9348 450.098 86.9606 447.561C87.0064 443.07 86.8336 436.451 86.4425 427.7L96.4203 457.937C96.5088 458.205 96.8147 458.332 97.0669 458.205C101.256 456.1 104.448 454.625 106.637 453.783C137.295 441.994 162.587 471.91 182.451 543.867C182.507 544.068 182.689 544.206 182.897 544.206H599.538C599.793 544.206 600 543.999 600 543.744C600 543.489 599.793 543.282 599.538 543.282H183.249C163.27 471.102 137.643 440.87 106.306 452.92C104.166 453.743 101.11 455.148 97.1306 457.139L86.2633 424.207C86.0947 423.696 85.3368 423.836 85.3626 424.374C85.863 434.796 86.0874 442.523 86.0362 447.551C86.0107 450.053 85.9169 451.881 85.7565 453.029C85.6907 453.5 85.6144 453.847 85.5352 454.06C82.956 452.516 78.4175 449.173 71.9356 444.042C71.5058 443.702 70.9464 444.26 71.2856 444.691C76.4346 451.226 80.1957 456.203 82.5671 459.62C83.7464 461.319 84.5795 462.628 85.0639 463.542C85.2966 463.981 85.4449 464.322 85.508 464.555C85.5203 464.6 85.5286 464.639 85.5335 464.669C72.004 475.224 57.2204 501.418 41.1307 543.282H0.46225C0.206956 543.282 0 543.489 0 543.744C0 543.999 0.206956 544.206 0.46225 544.206H41.4484C41.6398 544.206 41.8114 544.088 41.8799 543.91C57.995 501.922 72.7855 475.716 86.1985 465.323C86.9564 464.736 86.0283 462.985 83.3266 459.093C81.3223 456.205 78.338 452.218 74.3727 447.131C79.4694 451.095 83.1027 453.711 85.283 454.985Z" fill="#9B1EA6"/>
<path d="M362.389 0H344.882C337.017 0 330.631 6.34407 330.553 14.1997L320.16 29.1987C319.947 29.5056 320.167 29.9252 320.54 29.9252H390.802C391.209 29.9252 391.417 29.435 391.134 29.1412L376.101 13.5404C376.001 6.04507 369.9 0 362.389 0ZM331.395 14.6094C331.448 14.5319 331.477 14.4399 331.477 14.3456C331.477 6.93389 337.479 0.925522 344.882 0.925522H362.389C369.452 0.925522 375.178 6.65764 375.178 13.7286C375.178 13.8484 375.225 13.9636 375.308 14.0499L389.713 28.9997H321.423L331.395 14.6094Z" fill="#9B1EA6"/>
<path fill-rule="evenodd" clip-rule="evenodd" d="M375.451 14.0371L330.817 14.6541L327.735 19.2817H380.431L375.451 14.0371Z" fill="#CD6BD6"/>
<path d="M375.753 13.2658L331.118 13.8828C330.966 13.885 330.825 13.962 330.74 14.0889L327.658 18.7165C327.454 19.024 327.674 19.4359 328.043 19.4359H380.74C381.146 19.4359 381.354 18.949 381.075 18.6543L376.094 13.4097C376.005 13.3162 375.881 13.2641 375.753 13.2658ZM379.662 18.5104H328.907L331.374 14.8049L375.563 14.1941L379.662 18.5104Z" fill="#9B1EA6"/>
<path fill-rule="evenodd" clip-rule="evenodd" d="M250.385 531.712L245.146 557.01H265.485H344.376C339.826 547.399 334.485 540.714 328.351 536.957C322.218 533.199 311.021 531.451 294.761 531.712L303.082 488.521L253.159 488.83L252.542 521.223L250.385 531.712Z" fill="white"/>
<path fill-rule="evenodd" clip-rule="evenodd" d="M384.438 528.01V557.318L396.764 557.01H475.655C471.105 547.399 465.764 540.714 459.63 536.957C453.497 533.199 442.3 531.451 426.04 531.712L433.744 489.214L379.815 488.83L383.821 521.223L384.438 528.01Z" fill="white"/>
<path fill-rule="evenodd" clip-rule="evenodd" d="M252.542 521.532C257.261 522.296 260.959 525.278 263.636 530.478C266.314 535.679 267.752 542.671 267.951 551.457L246.379 551.148" fill="#CD6BD6"/>
<path fill-rule="evenodd" clip-rule="evenodd" d="M384.438 521.532C392.854 523.53 398.401 527.129 401.079 532.329C403.756 537.53 404.989 543.906 404.777 551.457L384.438 551.148V521.532Z" fill="#CD6BD6"/>
<path d="M267.872 488.585L271.303 464.92H263.945V463.995H271.438L273.272 451.346H266.718V450.421H302.465V451.346H295.3L292.956 463.995H299.692V464.92H292.785L288.424 488.458L303.642 488.364L296.825 523.75L299.18 517.294C299.278 517.023 299.402 516.761 299.548 516.512C300.884 514.235 303.814 513.472 306.091 514.808C306.475 515.034 306.82 515.318 307.115 515.651C308.661 517.396 308.499 520.065 306.753 521.61L295.797 531.313C297.86 530.8 302.923 529.499 310.361 527.563C310.608 527.499 310.861 527.647 310.925 527.894C310.989 528.141 310.841 528.393 310.594 528.458C305.175 529.868 301.268 530.879 298.689 531.535C312.917 531.6 322.878 533.37 328.593 536.871C334.812 540.681 340.209 547.435 344.794 557.121L345.106 557.781H244.579L249.932 531.928L252.081 521.48L252.705 488.679L267.872 488.585ZM268.807 488.579L277.747 488.524L281.359 464.92H272.238L268.807 488.579ZM278.683 488.518L287.482 488.464L291.844 464.92H282.295L278.683 488.518ZM295.153 532.477C295.113 532.485 295.072 532.488 295.031 532.484L284.605 532.791C284.35 532.799 284.137 532.598 284.13 532.343C284.122 532.088 284.323 531.875 284.578 531.867L293.889 531.593L282.617 521.61C280.871 520.065 280.709 517.396 282.255 515.651C282.55 515.318 282.896 515.034 283.279 514.808C285.557 513.472 288.486 514.235 289.823 516.512C289.969 516.761 290.092 517.023 290.191 517.294L294.685 529.618L294.83 529.222L302.521 489.295L253.612 489.598L253.011 521.185C262.607 524.037 268.109 533.912 268.406 550.686H340.291C336.651 544.744 332.589 540.404 328.11 537.66C322.119 533.989 311.124 532.251 295.153 532.477ZM295.723 529.47L295.567 530.282L306.141 520.918C307.504 519.711 307.63 517.627 306.423 516.264C306.193 516.004 305.923 515.782 305.623 515.606C303.786 514.528 301.423 515.143 300.345 516.98C300.227 517.181 300.128 517.392 300.048 517.611L295.723 529.47ZM340.846 551.611H246.8L245.714 556.856H343.642C342.74 554.993 341.808 553.244 340.846 551.611ZM246.992 550.686H267.481C267.189 534.37 261.931 524.888 252.894 522.116L250.838 532.115L246.992 550.686ZM289.322 517.611C289.243 517.392 289.143 517.181 289.025 516.98C287.947 515.143 285.584 514.528 283.747 515.606C283.448 515.782 283.178 516.004 282.947 516.264C281.74 517.627 281.867 519.711 283.23 520.918L294.01 530.465L289.322 517.611ZM294.36 451.346H284.372L282.436 463.995H292.016L294.36 451.346ZM283.437 451.346H274.206L272.372 463.995H281.501L283.437 451.346Z" fill="#9B1EA6"/>
<path fill-rule="evenodd" clip-rule="evenodd" d="M248.536 159.344H238.367L249.461 141.759" fill="#CD6BD6"/>
<path d="M390.647 488.429L387.238 464.92H381.356V463.995H387.104L385.27 451.346H379.507V450.421H416.795V451.346H408.832L410.105 463.995H417.103V464.92H410.198L412.578 488.555L434.292 488.679L427.263 529.436L431.691 517.294C431.79 517.023 431.913 516.761 432.059 516.512C433.396 514.235 436.325 513.472 438.603 514.808C438.986 515.034 439.332 515.318 439.627 515.651C441.173 517.396 441.011 520.065 439.265 521.61L428.799 530.879C431.406 530.216 435.788 529.086 441.64 527.563C441.887 527.499 442.14 527.647 442.204 527.894C442.268 528.141 442.12 528.393 441.873 528.458C436.457 529.867 432.551 530.878 429.972 531.534C444.362 531.575 454.424 533.345 460.18 536.871C466.399 540.681 471.796 547.435 476.381 557.121L476.693 557.781H383.979L383.975 557.322L383.671 521.592L379.287 488.365L390.647 488.429ZM391.582 488.435L400.865 488.488L398.777 464.92H388.173L391.582 488.435ZM401.794 488.493L411.649 488.55L409.269 464.92H399.705L401.794 488.493ZM384.533 521.079C397.92 523.777 404.831 533.693 405.23 550.686H471.878C468.238 544.744 464.176 540.404 459.697 537.66C453.727 534.003 442.79 532.263 426.914 532.475C426.852 532.489 426.789 532.489 426.73 532.477C426.62 532.479 426.51 532.481 426.4 532.482C426.37 532.486 426.34 532.487 426.31 532.484L415.884 532.791C415.629 532.799 415.416 532.598 415.409 532.343C415.401 532.088 415.602 531.875 415.857 531.867L425.168 531.593L413.896 521.61C412.15 520.065 411.988 517.396 413.534 515.651C413.829 515.318 414.175 515.034 414.558 514.808C416.835 513.472 419.765 514.235 421.101 516.512C421.248 516.761 421.371 517.023 421.47 517.294L426.188 530.232L433.196 489.597L380.343 489.295L384.533 521.079ZM384.596 522.036L384.843 550.686H404.305C403.913 534.214 397.355 524.71 384.596 522.036ZM472.433 551.611H384.851L384.896 556.856H475.229C474.327 554.993 473.395 553.244 472.433 551.611ZM420.601 517.611C420.521 517.392 420.422 517.181 420.304 516.98C419.226 515.143 416.863 514.528 415.026 515.606C414.726 515.782 414.457 516.004 414.226 516.264C413.019 517.627 413.145 519.711 414.509 520.918L425.289 530.465L420.601 517.611ZM432.56 517.611L427.872 530.465L438.652 520.918C440.015 519.711 440.142 517.627 438.934 516.264C438.704 516.004 438.434 515.782 438.135 515.606C436.298 514.528 433.935 515.143 432.857 516.98C432.739 517.181 432.639 517.392 432.56 517.611ZM407.902 451.346H398.502L399.623 463.995H409.176L407.902 451.346ZM397.574 451.346H386.204L388.039 463.995H398.695L397.574 451.346Z" fill="#9B1EA6"/>
<path d="M89.9278 364.774L90.8374 370.517L85.5535 371.354L86.2357 375.661L79.4421 376.737L78.7599 372.43L60.1153 375.383L59.2057 369.639L75.2531 350.288L82.0467 349.212L84.6439 365.61L89.9278 364.774ZM66.5276 368.48L77.8503 366.686L76.3303 357.089L66.5276 368.48ZM108.828 372.47C98.3353 374.132 92.5874 370.085 91.193 361.281C89.8046 352.515 94.0266 346.927 104.519 345.266C114.973 343.61 120.759 347.651 122.142 356.379C123.53 365.145 119.282 370.814 108.828 372.47ZM107.924 366.765C113.887 365.82 116.132 362.405 115.348 357.455C114.57 352.543 111.386 350.026 105.423 350.971C99.4593 351.915 97.2026 355.255 97.9866 360.205C98.7765 365.192 101.961 367.709 107.924 366.765ZM155.599 354.372L156.509 360.115L151.225 360.952L151.907 365.26L145.114 366.336L144.431 362.028L125.787 364.981L124.877 359.238L140.924 339.887L147.718 338.811L150.315 355.209L155.599 354.372ZM132.199 358.078L143.522 356.285L142.002 346.688L132.199 358.078Z" fill="#CD6BD6"/>
<path d="M90.6074 363.941L91.6616 370.598L86.3777 371.435L87.0599 375.742L79.3532 376.962L78.671 372.655L60.0264 375.608L59.0117 369.202L75.3039 349.556L82.7262 348.38L85.3235 364.778L90.6074 363.941ZM84.555 365.836L81.9578 349.438L75.7929 350.414L59.9903 369.47L60.7949 374.55L79.4395 371.597L80.1217 375.905L86.0022 374.973L85.32 370.666L90.6039 369.829L89.8389 364.999L84.555 365.836ZM65.6505 368.83L76.9261 355.728L78.6745 366.767L65.6505 368.83ZM77.6168 365.999L76.3251 357.844L67.9954 367.523L77.6168 365.999ZM109.195 372.623C98.6469 374.294 92.4945 370.285 91.0318 361.05C89.5758 351.857 94.1896 346.177 104.742 344.506C115.255 342.841 121.443 346.847 122.893 356.004C124.35 365.202 119.704 370.959 109.195 372.623ZM109.051 371.71C119.075 370.122 123.354 364.821 121.98 356.148C120.614 347.519 114.916 343.83 104.887 345.419C94.8178 347.014 90.5725 352.24 91.9449 360.905C93.3243 369.614 98.9871 373.304 109.051 371.71ZM108.292 366.918C102.266 367.872 98.684 365.395 97.8254 359.974C96.9735 354.595 99.6168 351.166 105.646 350.211C111.66 349.259 115.252 351.724 116.1 357.08C116.955 362.477 114.304 365.966 108.292 366.918ZM108.147 366.005C113.663 365.131 115.96 362.108 115.187 357.224C114.42 352.385 111.311 350.25 105.79 351.124C100.254 352.001 97.9683 354.967 98.7385 359.829C99.5157 364.736 102.616 366.881 108.147 366.005ZM156.279 353.54L157.333 360.196L152.049 361.033L152.731 365.341L145.025 366.561L144.342 362.254L125.698 365.207L124.683 358.801L140.975 339.154L148.398 337.979L150.995 354.377L156.279 353.54ZM150.226 355.435L147.629 339.036L141.464 340.013L125.662 359.069L126.466 364.149L145.111 361.196L145.793 365.503L151.674 364.572L150.991 360.265L156.275 359.428L155.51 354.598L150.226 355.435ZM131.322 358.429L142.597 345.327L144.346 356.366L131.322 358.429ZM143.288 355.598L141.997 347.442L133.667 357.121L143.288 355.598Z" fill="#9B1EA6"/>
<path d="M249.341 141.263C249.396 141.053 249.444 140.857 249.484 140.677L249.989 130.008C250.827 112.322 265.394 98.4138 283.08 98.4138H317.874V99.3393H283.08C265.887 99.3393 251.727 112.859 250.912 130.052L250.765 133.153C252.399 126.88 255.55 121.267 260.223 116.448C267.266 109.183 275.989 112.803 286.199 126.989C286.349 127.196 286.302 127.485 286.095 127.635C285.887 127.784 285.599 127.737 285.449 127.53C275.526 113.744 267.402 110.372 260.886 117.092C254.754 123.418 251.312 131.131 250.538 139.949C250.516 140.194 250.471 140.476 250.403 140.797L248.998 170.472L248.075 170.428L248.592 159.498H238.675C238.311 159.498 238.09 159.097 238.284 158.788L249.341 141.263ZM248.636 158.573L249.376 142.939L239.514 158.573H248.636Z" fill="#9B1EA6"/>
<path d="M385.769 182.683C385.514 182.674 385.315 182.459 385.324 182.203C385.334 181.948 385.549 181.749 385.804 181.759C389.209 181.889 390.826 179.932 390.757 175.654C390.688 171.356 389.273 169.355 386.487 169.404C386.232 169.408 386.021 169.205 386.017 168.949C386.012 168.694 386.216 168.483 386.471 168.478C389.86 168.419 391.605 170.888 391.682 175.639C391.758 180.409 389.753 182.836 385.769 182.683ZM384.783 215.235C384.528 215.212 384.341 214.987 384.364 214.733C384.387 214.478 384.612 214.291 384.866 214.314C388.26 214.622 389.977 212.753 390.132 208.477C390.288 204.181 388.98 202.109 386.195 202.012C385.94 202.003 385.74 201.788 385.749 201.533C385.758 201.277 385.972 201.078 386.227 201.087C389.614 201.205 391.228 203.762 391.056 208.51C390.883 213.278 388.753 215.596 384.783 215.235ZM364.576 251.255C364.343 251.153 364.236 250.88 364.339 250.646C364.441 250.412 364.714 250.305 364.948 250.408C368.089 251.785 370.183 250.882 371.451 247.595C372.728 244.285 372.058 242.244 369.435 241.237C369.197 241.145 369.078 240.878 369.17 240.639C369.261 240.401 369.529 240.281 369.767 240.373C372.91 241.579 373.761 244.175 372.314 247.927C370.858 251.702 368.205 252.846 364.576 251.255ZM331.294 128.066L332.188 128.304C330.501 134.635 326.983 138.371 321.662 139.436L321.481 138.529C326.433 137.537 329.694 134.075 331.294 128.066Z" fill="#9B1EA6"/>
<path d="M279.523 140.336L280.755 144.963C280.821 145.21 281.074 145.357 281.321 145.291C281.568 145.225 281.714 144.972 281.649 144.725L280.416 140.097C280.35 139.85 280.097 139.704 279.85 139.769C279.603 139.835 279.457 140.089 279.523 140.336Z" fill="#9B1EA6"/>
<path d="M279.865 140.667L283.871 141.593C284.12 141.65 284.368 141.495 284.426 141.246C284.483 140.997 284.328 140.749 284.079 140.691L280.073 139.766C279.824 139.708 279.576 139.863 279.519 140.113C279.461 140.362 279.617 140.61 279.865 140.667Z" fill="#9B1EA6"/>
<path d="M453.82 143.597C450.704 139.834 445.285 139.437 440.819 142.378C439.079 143.524 437.809 145.157 437.213 147.022C435.711 151.723 441.614 163.734 454.934 183.359C455.077 183.571 455.365 183.625 455.576 183.482C455.787 183.338 455.842 183.05 455.698 182.839C442.596 163.533 436.724 151.588 438.094 147.304C438.624 145.644 439.76 144.183 441.327 143.152C445.422 140.454 450.313 140.813 453.108 144.188C453.271 144.385 453.563 144.412 453.759 144.249C453.956 144.086 453.983 143.794 453.82 143.597Z" fill="#9B1EA6"/>
</svg>
